<?xml version="1.0" encoding="UTF-8"?>
<svg id="Capa_1" data-name="Capa 1" xmlns="http://www.w3.org/2000/svg" viewBox="0 0 512 512">
  <defs>
    <style>
      .cls-1 {
        fill: #f7f7f8;
      }

      .cls-1, .cls-2, .cls-3, .cls-4, .cls-5, .cls-6, .cls-7, .cls-8, .cls-9, .cls-10, .cls-11, .cls-12, .cls-13, .cls-14, .cls-15, .cls-16, .cls-17, .cls-18, .cls-19, .cls-20, .cls-21, .cls-22, .cls-23 {
        stroke-width: 0px;
      }

      .cls-2 {
        fill: #dfe0e1;
      }

      .cls-3 {
        fill: #cfd1d2;
      }

      .cls-4 {
        fill: #a8abad;
      }

      .cls-5 {
        fill: #bbbdbf;
      }

      .cls-6 {
        fill: #e2e3e4;
      }

      .cls-7 {
        fill: #c0c1c3;
      }

      .cls-8 {
        fill: #9c9ea1;
      }

      .cls-9 {
        fill: #dbdcdd;
      }

      .cls-10 {
        fill: #c1c3c5;
      }

      .cls-11 {
        fill: #a1a3a5;
      }

      .cls-12 {
        fill: #f1f1f2;
      }

      .cls-13 {
        fill: #ebecec;
      }

      .cls-14 {
        fill: #e8e8e9;
      }

      .cls-15 {
        fill: #d4d5d6;
      }

      .cls-16 {
        fill: #7d7f81;
      }

      .cls-17 {
        fill: #c8cacb;
      }

      .cls-18 {
        fill: #b0b2b4;
      }

      .cls-19 {
        fill: #fff;
      }

      .cls-20 {
        fill: #929497;
      }

      .cls-21 {
        fill: #e5e6e7;
      }

      .cls-22 {
        fill: #b4b6b8;
      }

      .cls-23 {
        fill: #c4c5c7;
      }
    </style>
  </defs>
  <g id="Layer_6" data-name="Layer 6">
    <g>
      <g>
        <polygon class="cls-6" points="192.38 147.61 124.03 263.6 245.04 257.69 192.38 147.61"/>
        <path class="cls-19" d="M123.71,263.8l68.69-116.57.15.3,52.77,110.33h-.27s-121.34,5.94-121.34,5.94ZM192.37,147.99l-68.01,115.41,120.4-5.88-52.39-109.53Z"/>
      </g>
      <g>
        <polygon class="cls-9" points="245.04 257.69 311.27 160.87 192.38 147.61 245.04 257.69"/>
        <path class="cls-19" d="M245.01,258.05l-.13-.28-52.8-110.37.32.04,119.19,13.29-.17.25-66.41,97.08ZM192.69,147.83l52.38,109.51,65.89-96.32-118.27-13.19Z"/>
      </g>
      <g>
        <polygon class="cls-21" points="311.27 160.87 281.28 87.13 192.38 147.61 311.27 160.87"/>
        <path class="cls-19" d="M311.55,161.08l-.3-.03-119.37-13.31.4-.27,89.08-60.61.08.21,30.1,74.02ZM192.89,147.49l118.11,13.17-29.79-73.25-88.31,60.08Z"/>
      </g>
      <g>
        <polygon class="cls-13" points="192.38 147.61 281.28 87.13 166.7 95.47 192.38 147.61"/>
        <path class="cls-19" d="M192.31,147.87l-.09-.19-25.8-52.38.27-.02,115.25-8.39-89.63,60.97ZM166.98,95.63l25.48,51.72,88.18-59.99-113.65,8.27Z"/>
      </g>
      <g>
        <polygon class="cls-1" points="281.28 87.13 245.04 80.5 166.7 95.47 281.28 87.13"/>
        <path class="cls-19" d="M166.71,95.65l-.05-.36,78.37-14.97h.03s37.63,6.89,37.63,6.89l-115.99,8.44ZM245.04,80.69l-75.27,14.38,110.09-8.01-34.82-6.37Z"/>
      </g>
      <g>
        <polygon class="cls-15" points="310.65 160.87 369.27 164.6 281.28 87.13 310.65 160.87"/>
        <path class="cls-19" d="M369.79,164.81l-59.26-3.77-.04-.11-29.65-74.44,88.95,78.31ZM310.78,160.69l57.98,3.69-87.03-76.62,29.05,72.93Z"/>
      </g>
      <g>
        <polygon class="cls-17" points="369.06 164.6 339.8 109.19 281.28 87.13 369.06 164.6"/>
        <path class="cls-19" d="M369.68,165.38l-89.25-78.77,59.5,22.43.03.06,29.72,56.28ZM282.14,87.64l86.31,76.17-28.77-54.48-57.53-21.69Z"/>
      </g>
      <g>
        <polygon class="cls-7" points="369.27 164.6 388.33 157.55 339.8 109.19 369.27 164.6"/>
        <path class="cls-19" d="M369.19,164.82l-30.11-56.6,49.57,49.41-19.47,7.19ZM340.52,110.16l28.83,54.21,18.65-6.89-47.48-47.32Z"/>
      </g>
      <g>
        <polygon class="cls-22" points="403.64 182.41 388.33 157.55 369.27 164.6 403.64 182.41"/>
        <path class="cls-19" d="M404.14,182.87l-35.31-18.3,19.58-7.23,15.73,25.53ZM369.72,164.62l33.43,17.33-14.9-24.18-18.54,6.85Z"/>
      </g>
      <g>
        <polygon class="cls-23" points="311.27 160.87 377.56 266.92 245.04 257.69 311.27 160.87"/>
        <path class="cls-19" d="M377.9,267.12l-.35-.02-132.83-9.25.18-.26,66.39-97.05.15.23,66.47,106.35ZM245.36,257.53l131.85,9.18-65.95-105.52-65.9,96.34Z"/>
      </g>
      <g>
        <polygon class="cls-5" points="377.56 266.94 300.92 380.01 245.04 257.69 377.56 266.94"/>
        <path class="cls-19" d="M300.89,380.37l-.13-.29-56.01-122.59,133.13,9.29-.17.26-76.82,113.33ZM245.33,257.89l55.62,121.75,76.28-112.55-131.9-9.2Z"/>
      </g>
      <g>
        <polygon class="cls-15" points="245.04 257.82 189.07 363.44 124.03 263.6 245.04 257.82"/>
        <path class="cls-19" d="M189.09,363.79l-.17-.26-65.21-100.1.31-.02,121.32-5.79-.15.28-56.11,105.88ZM124.35,263.77l64.7,99.32,55.68-105.06-120.38,5.75Z"/>
      </g>
      <g>
        <polygon class="cls-2" points="124.03 263.6 189.07 363.44 114.92 367.58 124.03 263.6"/>
        <path class="cls-19" d="M114.72,367.77l.02-.21,9.16-104.5.28.44,65.21,100.1-.31.02-74.36,4.15ZM124.17,264.14l-9.05,103.25,73.63-4.11-64.58-99.14Z"/>
      </g>
      <g>
        <polygon class="cls-7" points="114.92 367.58 189.07 363.44 215.57 428.47 114.92 367.58"/>
        <path class="cls-19" d="M215.95,428.91l-101.62-61.47.58-.03,74.28-4.15.05.12,26.71,65.54ZM115.51,367.73l99.69,60.31-26.25-64.41-73.44,4.1Z"/>
      </g>
      <g>
        <polygon class="cls-4" points="160.06 411.07 114.92 367.58 215.57 428.47 160.06 411.07"/>
        <path class="cls-19" d="M216.94,429.09l-57-17.89-46.3-44.61,103.31,62.5ZM160.16,410.92l54.05,16.94-98.01-59.29,43.96,42.35Z"/>
      </g>
      <g>
        <polygon class="cls-3" points="93.78 341.48 68.11 263.6 114.92 367.58 93.78 341.48"/>
        <path class="cls-19" d="M115.65,368.77l-22.04-27.24-25.67-77.88.33-.13,47.38,105.24ZM93.94,341.39l20.24,25-44.83-99.58,24.59,74.58Z"/>
      </g>
      <g>
        <polygon class="cls-16" points="245.04 432.62 215.57 428.47 322.04 419.77 245.04 432.62"/>
        <path class="cls-19" d="M245.04,432.8h-.03s-31.07-4.37-31.07-4.37l108.08-8.83.04.36-77.03,12.85ZM217.2,428.52l27.83,3.91,72.74-12.13-100.57,8.22Z"/>
      </g>
      <g>
        <polygon class="cls-4" points="189.07 363.44 300.92 380.01 215.57 428.47 189.07 363.44"/>
        <path class="cls-19" d="M215.49,428.73l-26.7-65.52.31.05,112.37,16.65-.45.26-85.52,48.57ZM189.36,363.66l26.31,64.55,84.71-48.11-111.02-16.45Z"/>
      </g>
      <g>
        <polygon class="cls-20" points="300.92 380.01 322.04 419.77 215.57 428.47 300.92 380.01"/>
        <path class="cls-19" d="M214.78,428.72l.71-.4,85.51-48.56.09.16,21.25,40.01-.27.02-107.28,8.77ZM300.85,380.26l-84.47,47.97,105.38-8.61-20.9-39.36Z"/>
      </g>
      <g>
        <polygon class="cls-8" points="388.33 355.98 322.04 419.77 300.92 380.21 388.33 355.98"/>
        <path class="cls-19" d="M321.99,420.07l-.11-.21-21.23-39.76.22-.06,88.09-24.42-.51.49-66.46,63.96ZM301.18,380.33l20.9,39.15,65.61-63.13-86.51,23.98Z"/>
      </g>
      <g>
        <polygon class="cls-13" points="68.11 263.6 124.03 263.6 114.92 367.58 68.11 263.6"/>
        <path class="cls-19" d="M115.04,368.28l-47.21-104.86h56.4l-.02.2-9.17,104.66ZM68.39,263.78l46.41,103.1,9.04-103.1h-55.45Z"/>
      </g>
      <g>
        <polygon class="cls-12" points="99.73 173.29 166.7 95.47 192.38 147.61 99.73 173.29"/>
        <path class="cls-19" d="M99.21,173.63l.39-.45,67.15-78.03.12.24,25.78,52.34-93.43,25.9ZM166.66,95.79l-66.41,77.17,91.87-25.47-25.47-51.7Z"/>
      </g>
      <g>
        <polygon class="cls-12" points="68.11 263.6 99.73 173.29 124.03 263.6 68.11 263.6"/>
        <path class="cls-19" d="M124.27,263.78h-56.41l.08-.24,31.81-90.86,24.51,91.1ZM68.36,263.42h55.44l-24.09-89.52-31.35,89.52Z"/>
      </g>
      <g>
        <polygon class="cls-1" points="68.11 263.6 86.75 187.38 99.73 173.29 68.11 263.6"/>
        <path class="cls-19" d="M68.28,263.66l-.34-.1,18.66-76.27.03-.03,13.57-14.73-31.91,91.13ZM86.92,187.47l-17.75,72.57,30.11-85.99-12.36,13.41Z"/>
      </g>
      <g>
        <polygon class="cls-1" points="99.73 173.29 86.75 187.38 96.07 167.78 166.7 95.47 99.73 173.29"/>
        <path class="cls-19" d="M86.08,188.37l9.86-20.72,70.63-72.31.26.24-66.97,77.83-13.79,14.96ZM96.22,167.88l-8.8,18.5,12.17-13.21,63.25-73.5-66.62,68.21Z"/>
      </g>
      <g>
        <polygon class="cls-14" points="99.73 173.29 192.38 147.61 124.03 263.6 99.73 173.29"/>
        <path class="cls-19" d="M123.97,264.06l-.11-.41-24.35-90.48.17-.05,93.08-25.8-.23.38-68.57,116.36ZM99.95,173.42l24.14,89.72,67.91-115.24-92.05,25.52Z"/>
      </g>
      <g>
        <polygon class="cls-10" points="245.07 257.82 300.92 380.01 189.07 363.44 245.07 257.82"/>
        <path class="cls-19" d="M301.22,380.23l-.33-.05-112.1-16.61.12-.22,56.17-105.94.15.33,55.99,122.48ZM189.35,363.3l111.27,16.49-55.56-121.55-55.71,105.07Z"/>
      </g>
      <g>
        <polygon class="cls-4" points="377.56 267.35 388.33 355.98 300.92 380.01 377.56 267.35"/>
        <path class="cls-19" d="M300.5,380.31l.27-.4,76.91-113.05.06.48,10.79,88.78-.15.04-87.88,24.16ZM377.44,267.85l-76.09,111.85,86.79-23.86-10.69-88Z"/>
      </g>
      <g>
        <polygon class="cls-11" points="377.56 266.92 424.37 266.92 388.33 355.98 377.56 266.92"/>
        <path class="cls-19" d="M388.23,356.7l-10.88-89.96h47.28l-.1.25-36.3,89.71ZM377.76,267.1l10.66,88.17,35.68-88.17h-46.34Z"/>
      </g>
      <g>
        <polygon class="cls-5" points="311.27 160.87 369.27 164.6 377.56 267.35 311.27 160.87"/>
        <path class="cls-19" d="M377.8,268.08l-.39-.63-66.47-106.78,58.5,3.76v.16s8.36,103.5,8.36,103.5ZM311.61,161.07l65.71,105.56-8.21-101.86-57.49-3.7Z"/>
      </g>
      <g>
        <polygon class="cls-18" points="377.56 266.92 424.37 266.92 369.27 164.6 377.56 266.92"/>
        <path class="cls-19" d="M424.67,267.1h-47.28l-8.37-103.34,55.65,103.34ZM377.72,266.74h46.34l-54.55-101.3,8.2,101.3Z"/>
      </g>
      <g>
        <polygon class="cls-4" points="424.37 266.92 403.64 182.41 369.27 164.6 424.37 266.92"/>
        <path class="cls-19" d="M424.88,268.24l-.67-1.24-55.37-102.83,34.96,18.12.02.08,21.06,85.88ZM369.71,165.02l54.15,100.56-20.37-83.06-33.78-17.51Z"/>
      </g>
    </g>
    <g>
      <path class="cls-19" d="M340.86,161.88l163.73,108.14.24-.27-163.6-108.06,88.36-44.17-.08-.16.12-.14-101.92-85.22-.12.14-.07-.17-160.87,63.31-95.11,13.72.03.18-.18.02,13.04,147.42L6.51,328.64l.12.13h0s-.15.11-.15.11l95.95,130.96.15-.11.04.18,324.1-71.85-.04-.18.15.1,75.8-118.21-.15-.1-.08-.16-140.92,66.98-143.92-112.95,123.31-61.64ZM217.24,223.28l-52.02-40.83,86.19-79.65,89.11,58.86-123.28,61.63ZM216.88,223.46l-129.31,64.64-2.77-31.34,80.14-74.07,51.94,40.76ZM251.37,102.34l-83.88-6.99,159.27-62.68-75.39,69.68ZM327.59,32.39l101.36,84.76-177.1-14.76,75.74-70ZM251.01,102.67l-86.08,79.56-92.92-72.92,94.71-13.66-.03-.18.04.1-.02.07,84.29,7.03ZM251.98,102.75l176.87,14.74-87.97,43.98-88.91-58.72ZM71.79,109.59l92.87,72.89-79.9,73.84-12.98-146.73ZM87.23,288.28L7.68,328.04l76.79-70.97,2.76,31.2ZM87.27,288.66l15.08,170.44L6.9,328.84l80.37-40.18ZM104.09,459.21l257.34-122.31,64.84,50.88-322.18,71.43ZM501.99,270.1l-75.35,117.52-64.84-50.89,140.19-66.63ZM361.11,336.65l-258.38,122.81-15.12-170.97,129.59-64.78,143.92,112.95Z"/>
      <g>
        <path class="cls-19" d="M431.3,117.37c0,1.28-1.03,2.31-2.31,2.31s-2.31-1.03-2.31-2.31,1.03-2.31,2.31-2.31,2.31,1.03,2.31,2.31Z"/>
        <path class="cls-19" d="M329.9,32.15c0,1.28-1.03,2.31-2.31,2.31s-2.31-1.03-2.31-2.31,1.03-2.31,2.31-2.31,2.31,1.03,2.31,2.31Z"/>
        <circle class="cls-19" cx="71.57" cy="109.19" r="2.31"/>
        <path class="cls-19" d="M8.94,328.77c0,1.28-1.03,2.31-2.31,2.31s-2.31-1.03-2.31-2.31,1.03-2.31,2.31-2.31,2.31,1.03,2.31,2.31Z"/>
        <path class="cls-19" d="M104.89,459.73c0,1.28-1.03,2.31-2.31,2.31s-2.31-1.03-2.31-2.31,1.03-2.31,2.31-2.31,2.31,1.03,2.31,2.31Z"/>
        <path class="cls-19" d="M428.99,387.88c0,1.28-1.03,2.31-2.31,2.31s-2.31-1.03-2.31-2.31,1.03-2.31,2.31-2.31,2.31,1.03,2.31,2.31Z"/>
        <path class="cls-19" d="M504.79,269.66c0,1.28-1.03,2.31-2.31,2.31s-2.31-1.03-2.31-2.31,1.03-2.31,2.31-2.31,2.31,1.03,2.31,2.31Z"/>
      </g>
    </g>
  </g>
</svg>