<?xml version="1.0" encoding="UTF-8"?>
<svg id="Capa_1" data-name="Capa 1" xmlns="http://www.w3.org/2000/svg" viewBox="0 0 512 512">
  <defs>
    <style>
      .cls-1 {
        fill: #00005b;
      }

      .cls-1, .cls-2 {
        stroke-width: 0px;
      }

      .cls-2 {
        fill: #99f;
      }
    </style>
  </defs>
  <path class="cls-1" d="M93.88,11.26h324.23c49.16,0,88.9,39.74,88.9,88.9v311.68c0,49.16-39.74,88.9-88.9,88.9H93.88c-49.16,0-88.9-39.74-88.9-88.9V100.16C4.98,51,44.72,11.26,93.88,11.26Z"/>
  <path class="cls-2" d="M210.78,311.71h-79.55l-16.25,50.47c-.43,1.92-2.14,3.21-4.06,2.99h-40.2c-2.35,0-2.99-1.28-2.35-3.85l68.86-197.38c.64-2.14,1.28-4.06,2.14-6.63.86-4.49,1.28-9.19,1.28-13.9-.21-1.07.64-2.14,1.71-2.35h55.39c1.5,0,2.57.64,2.78,1.71l78.05,218.12c.64,2.35,0,3.42-2.14,3.42h-44.69c-1.5.21-2.99-.86-3.42-2.35l-17.54-51.32v1.07h0ZM143.64,269.16h54.32c-1.28-4.49-2.99-9.84-4.92-15.4-1.93-5.77-3.85-11.97-5.77-18.39-2.14-6.63-4.06-13.04-6.2-19.67-2.14-6.63-4.06-12.83-5.77-19.03-1.71-5.99-3.21-11.55-4.71-16.68h-.43c-1.93,9.19-4.28,18.39-7.27,27.59-3.21,10.26-6.42,20.96-9.84,31.65-2.78,10.91-6.2,20.96-9.41,29.94h0ZM404.53,292.47h-67.79c.86,6.63,2.99,13.26,6.63,19.03,3.85,5.77,9.2,10.26,15.61,12.83,8.55,3.64,17.96,5.56,27.37,5.35,7.48-.21,14.97-.86,22.24-2.35,6.63-.86,13.04-2.57,19.03-4.92,1.07-.86,1.71-.43,1.71,1.71v32.72c0,.86-.21,1.71-.43,2.57-.43.64-.86,1.07-1.5,1.5-6.84,2.99-13.9,5.13-21.39,6.42-10.05,1.92-20.1,2.78-30.37,2.57-16.25,0-29.94-2.57-41.06-7.48-10.48-4.49-19.67-11.55-26.94-20.32-6.84-8.34-11.76-17.75-14.75-28.01-2.99-10.05-4.49-20.53-4.49-31.22,0-11.55,1.71-22.88,5.35-34,3.42-10.69,8.77-20.53,16.04-29.3,7.06-8.55,15.82-15.4,25.87-20.32s22.03-6.63,35.71-6.63c11.33-.21,22.67,1.93,33.15,6.63,8.77,3.85,16.47,9.62,22.45,17.11,5.56,7.27,10.05,15.4,12.83,24.38,2.78,8.55,4.06,17.32,4.06,26.09,0,5.13-.21,9.62-.43,13.69-.43,4.06-.64,7.06-.86,8.98-.21,1.5-1.5,2.78-2.99,2.78-1.28,0-3.64.21-7.06.43-3.42.43-7.48.64-12.4.64s-10.05-.86-15.61-.86h0ZM336.74,261.25h45.12c5.56,0,9.62,0,12.19-.21,1.71-.21,3.42-.64,4.92-1.71v-2.14c0-2.78-.43-5.35-1.28-7.91-3.85-11.97-15.18-20.1-27.8-19.67-11.76-.64-22.88,5.56-28.44,16.25-2.57,4.92-4.06,10.05-4.71,15.4h0Z"/>
</svg>