<?xml version="1.0" encoding="UTF-8"?>
<svg id="Capa_1" data-name="Capa 1" xmlns="http://www.w3.org/2000/svg" viewBox="0 0 512 512">
  <defs>
    <style>
      .cls-1 {
        fill: #00005b;
      }

      .cls-1, .cls-2 {
        stroke-width: 0px;
      }

      .cls-2 {
        fill: #99f;
      }
    </style>
  </defs>
  <path class="cls-1" d="M93.88,11.26h324.23c49.16,0,88.9,39.74,88.9,88.9v311.68c0,49.16-39.74,88.9-88.9,88.9H93.88c-49.16,0-88.9-39.74-88.9-88.9V100.16C4.98,51,44.72,11.26,93.88,11.26Z"/>
  <path class="cls-2" d="M210.3,312.71h-79.55l-16.23,50.5c-.4,2-2.2,3.21-4.01,3.01h-40.28c-2.4,0-3.01-1.2-2.4-3.81l68.93-197.98c.6-2.2,1.2-4.41,2.2-7.01,1-4.41,1.8-9.02,1.8-13.63-.2-1,.6-2.2,1.8-2.4h55.51c1.4,0,2.61.6,2.81,1.8l77.75,219.63c.6,2.4,0,3.41-2.2,3.41h-44.69c-1.4.2-3.01-.8-3.41-2.4l-18.04-51.1ZM143.17,270.03h54.31c-1.2-4.41-3.01-9.82-5.01-15.43-2-5.81-3.81-12.02-5.81-18.44-2.2-6.61-4.01-13.03-6.21-19.64s-4.01-12.82-5.81-19.04c-1.8-6.01-3.21-11.62-4.81-16.63h-.4c-2,9.22-4.21,18.44-7.21,27.65-3.21,10.22-6.41,21.04-9.82,31.66-2.61,10.82-6.01,20.84-9.22,29.86ZM442.76,197.49v131.25c0,5.81,0,10.82.2,15.43.2,4.41.4,8.42.6,11.82.4,3.41.6,5.41.8,7.61.2,2-.6,2.81-2.4,2.81h-36.67c-1.8.2-3.41-.8-4.01-2.4l-1.2-5.41c-.4-1.4-.4-3.01-.4-4.41-6.81,6.21-15.23,10.62-24.25,13.23-7.61,2.2-15.83,3.21-23.85,3.21s-15.83-1-23.25-3.61c-6.81-2.4-13.23-6.41-18.24-11.82-5.61-6.01-9.62-13.03-12.02-20.84-3.01-9.82-4.41-20.04-4.21-30.46v-106.21c-.2-1.2.6-2.61,2.2-2.81h41.48c1.2-.2,2.61.6,2.81,2.2v101.2c0,9.42,2.2,16.83,6.21,22.24s12.42,8.22,22.04,8.22c5.01,0,9.82-.8,14.63-2.61,5.01-1.8,9.42-4.01,13.43-7.01v-121.64c0-1.4,1-2.4,3.01-2.4h40.88c1-.2,2.4.6,2.4,1.8-.2.2-.2.4-.2.6h0Z"/>
</svg>