<?xml version="1.0" encoding="UTF-8"?>
<svg id="Capa_1" data-name="Capa 1" xmlns="http://www.w3.org/2000/svg" viewBox="0 0 512 512">
  <defs>
    <style>
      .cls-1 {
        fill: #ff7021;
      }

      .cls-1, .cls-2, .cls-3 {
        stroke-width: 0px;
      }

      .cls-2 {
        fill: #fff;
      }

      .cls-3 {
        fill: #005385;
      }
    </style>
  </defs>
  <path class="cls-2" d="M411.43,351.75c-20.3,20.71-48.7,32.42-79.46,32.47-30.78.06-59.2-11.57-79.5-32.22-9.92-10.07-17.2-21.62-21.72-33.97-4.42-12.12-6.1-25.09-4.97-37.93,1.09-12.53,4.79-24.72,10.89-35.73,5.94-10.77,14.1-20.49,24.16-28.71,19.73-16.09,44.84-24.78,71.14-24.82s51.39,8.61,71.14,24.62c10.05,8.2,18.21,17.88,24.12,28.62,6.1,11.01,9.82,23.18,10.91,35.71,1.13,12.86-.58,25.81-4.99,37.95-4.52,12.33-11.82,23.9-21.72,34.01h0Z"/>
  <path class="cls-3" d="M266.34,281.41c.92-16.75,9.14-31.52,21.51-41.98,12.14-10.29,28.5-16.56,46.31-16.56,17.84.02,34.17,6.29,46.31,16.56,12.37,10.48,20.59,25.23,21.53,41.98.95,17.22-5.98,33.23-18.12,45.08-12.37,12.06-30,19.64-49.73,19.64s-37.38-7.58-49.75-19.64c-12.12-11.86-19.03-27.86-18.08-45.08h0Z"/>
  <path class="cls-1" d="M158.28,315.31c.12,6.53,2.22,19.27,5.34,29.24,6.6,21.06,17.77,40.56,33.35,57.74,15.99,17.65,35.63,31.83,58.36,41.88,23.9,10.58,49.77,15.99,76.62,15.92,26.86-.04,52.73-5.53,76.6-16.19,22.71-10.17,42.35-24.39,58.31-42.08,15.55-17.26,26.71-36.78,33.31-57.84,3.29-10.5,5.4-21.33,6.27-32.28.82-10.68.47-21.45-1.03-32.08-2.96-20.84-10.17-40.38-21.27-58.19-10.17-16.36-23.24-30.7-38.79-42.78l.02-.02-156.94-120.49c-.12-.1-.27-.23-.39-.33-10.34-7.89-27.64-7.87-38.96.06-11.47,8.01-12.76,21.27-2.59,29.63l-.04.02,65.47,53.26-199.58.21h-.27c-16.48.02-32.34,10.85-35.49,24.51-3.21,13.93,7.99,25.48,25.15,25.56l-.02.06,101.16-.21L22.35,329.47c-.23.18-.47.35-.68.51-17.01,13.03-22.52,34.73-11.82,48.45,10.89,13.95,34.03,13.97,51.25.06l98.51-80.61s-1.44,10.89-1.34,17.42h0ZM411.43,351.75c-20.3,20.71-48.7,32.42-79.46,32.47-30.78.06-59.2-11.57-79.5-32.22-9.92-10.07-17.2-21.62-21.72-33.97-4.42-12.12-6.1-25.09-4.97-37.93,1.09-12.53,4.79-24.72,10.89-35.73,5.94-10.77,14.1-20.49,24.16-28.71,19.73-16.09,44.84-24.78,71.14-24.82,26.3-.04,51.39,8.61,71.14,24.62,10.05,8.2,18.21,17.88,24.12,28.62,6.1,11.01,9.82,23.18,10.91,35.71,1.13,12.86-.58,25.81-4.99,37.95-4.52,12.33-11.82,23.9-21.72,34.01h0Z"/>
</svg>