<?xml version="1.0" encoding="UTF-8"?>
<svg id="Capa_1" data-name="Capa 1" xmlns="http://www.w3.org/2000/svg" viewBox="0 0 512 512">
  <defs>
    <style>
      .cls-1 {
        opacity: .7;
      }

      .cls-1, .cls-2, .cls-3, .cls-4, .cls-5, .cls-6 {
        stroke-width: 0px;
      }

      .cls-1, .cls-5 {
        fill: #fff;
      }

      .cls-2 {
        fill: #0081d8;
      }

      .cls-3 {
        fill: #2f71a8;
      }

      .cls-4 {
        opacity: .4;
      }

      .cls-4, .cls-6 {
        fill: #000;
      }

      .cls-6 {
        opacity: .2;
      }
    </style>
  </defs>
  <g id="Layer_4" data-name="Layer 4">
    <g>
      <g>
        <g>
          <path class="cls-3" d="M331.44,286.33l-45.75,45.75s-28.2-31.61-65.53-28.04c-13.81-30.3-29.58-94.88-33.93-113.31l62.3,62.3c-2,3.66-1.45,8.32,1.64,11.41,3.76,3.76,9.84,3.76,13.6,0,3.76-3.76,3.78-9.85.02-13.62-3.09-3.09-7.76-3.62-11.42-1.62l-62.3-62.3c18.43,4.35,83.01,20.12,113.31,33.93-3.56,37.31,28.06,65.51,28.06,65.51Z"/>
          <path class="cls-6" d="M303.38,220.83c-30.3-13.81-94.89-29.58-113.32-33.93l62.3,62.3c3.67-2.01,8.34-1.48,11.44,1.62,3.76,3.76,3.73,9.86-.02,13.61l44.78,44.78,22.89-22.89s-31.61-28.19-28.06-65.5Z"/>
        </g>
        <g>
          <path class="cls-2" d="M457.67,458.32h0c-8.03,8.03-21.16,8.03-29.19,0l-134.17-134.17,29.19-29.19,134.17,134.17c8.03,8.03,8.03,21.16,0,29.19Z"/>
          <path class="cls-1" d="M457.67,458.32h0c-8.03,8.03-21.16,8.03-29.19,0l-134.17-134.17,29.19-29.19,134.17,134.17c8.03,8.03,8.03,21.16,0,29.19Z"/>
        </g>
        <rect class="cls-3" x="288.95" y="306.5" width="54.7" height="20.9" rx="2.93" ry="2.93" transform="translate(-131.48 316.49) rotate(-45)"/>
        <g>
          <g>
            <rect class="cls-3" x="270.86" y="298.26" width="75.4" height="21.9" rx="3.52" ry="3.52" transform="translate(-128.27 308.75) rotate(-45)"/>
            <rect class="cls-4" x="270.86" y="298.26" width="75.4" height="21.9" rx="3.52" ry="3.52" transform="translate(-128.27 308.75) rotate(-45)"/>
          </g>
          <rect class="cls-5" x="290.96" y="311.25" width="9.22" height="21.9" transform="translate(-141.26 303.36) rotate(-45)"/>
          <rect class="cls-5" x="302.67" y="302.26" width="3.78" height="21.9" transform="translate(741.39 319.35) rotate(135)"/>
        </g>
      </g>
      <g>
        <path class="cls-3" d="M175.69,479.18c-83.49-83.49-83.49-219.34,0-302.83,83.49-83.49,219.34-83.49,302.83,0l-2.48,2.48c-82.12-82.12-215.75-82.12-297.87,0-82.12,82.12-82.12,215.75,0,297.87l-2.48,2.48Z"/>
        <rect class="cls-3" x="-35.45" y="175.84" width="424.76" height="3.51" transform="translate(-73.75 177.13) rotate(-45)"/>
        <g>
          <rect class="cls-5" x="161.06" y="161.72" width="31.74" height="31.74" transform="translate(-73.75 177.13) rotate(-45)"/>
          <path class="cls-3" d="M176.93,202.51l-24.92-24.92,24.92-24.92,24.92,24.92-24.92,24.92ZM156.97,177.59l19.96,19.96,19.96-19.96-19.96-19.96-19.96,19.96Z"/>
        </g>
        <g>
          <rect class="cls-5" x="161.06" y="462.07" width="31.74" height="31.74" transform="translate(-286.13 265.1) rotate(-45)"/>
          <path class="cls-3" d="M176.93,502.86l-24.92-24.92,24.92-24.92,24.92,24.92-24.92,24.92ZM156.97,477.94l19.96,19.96,19.96-19.96-19.96-19.96-19.96,19.96Z"/>
        </g>
        <g>
          <rect class="cls-5" x="462.07" y="161.07" width="31.74" height="31.74" transform="translate(14.87 389.77) rotate(-45)"/>
          <path class="cls-3" d="M477.93,201.86l-24.92-24.92,24.92-24.92,24.92,24.92-24.92,24.92ZM457.97,176.94l19.96,19.96,19.96-19.96-19.96-19.96-19.96,19.96Z"/>
        </g>
        <g>
          <path class="cls-5" d="M338.98,15.54c6.2,6.2,6.2,16.24,0,22.44-6.2,6.2-16.24,6.2-22.44,0-6.2-6.2-6.2-16.24,0-22.44,6.2-6.2,16.24-6.2,22.44,0Z"/>
          <path class="cls-3" d="M327.76,44.38c-4.71,0-9.13-1.83-12.46-5.16-6.87-6.87-6.87-18.05,0-24.92,3.33-3.33,7.75-5.16,12.46-5.16s9.13,1.83,12.46,5.16h0c3.33,3.33,5.16,7.75,5.16,12.46s-1.83,9.13-5.16,12.46c-3.33,3.33-7.75,5.16-12.46,5.16ZM327.76,12.65c-3.77,0-7.32,1.47-9.98,4.13-5.5,5.5-5.5,14.46,0,19.96,5.5,5.5,14.46,5.5,19.96,0,2.67-2.67,4.13-6.21,4.13-9.98s-1.47-7.32-4.13-9.98h0c-2.67-2.67-6.21-4.13-9.98-4.13Z"/>
        </g>
        <g>
          <path class="cls-5" d="M37.98,316.54c6.2,6.2,6.2,16.24,0,22.44-6.2,6.2-16.24,6.2-22.44,0-6.2-6.2-6.2-16.24,0-22.44,6.2-6.2,16.24-6.2,22.44,0Z"/>
          <path class="cls-3" d="M26.76,345.38c-4.51,0-9.03-1.72-12.46-5.15-6.87-6.87-6.87-18.05,0-24.92,6.87-6.87,18.05-6.87,24.92,0h0c6.87,6.87,6.87,18.05,0,24.92-3.44,3.44-7.95,5.15-12.46,5.15ZM26.76,313.65c-3.62,0-7.23,1.38-9.98,4.13-5.5,5.5-5.5,14.46,0,19.96,5.5,5.5,14.46,5.5,19.96,0,5.5-5.5,5.5-14.46,0-19.96-2.75-2.75-6.37-4.13-9.98-4.13Z"/>
        </g>
      </g>
    </g>
  </g>
</svg>