<?xml version="1.0" encoding="UTF-8"?>
<svg id="Capa_1" data-name="Capa 1" xmlns="http://www.w3.org/2000/svg" viewBox="0 0 512 512">
  <defs>
    <style>
      .cls-1 {
        fill: #300;
      }

      .cls-1, .cls-2 {
        stroke-width: 0px;
      }

      .cls-2 {
        fill: #ff9a00;
      }
    </style>
  </defs>
  <path class="cls-1" d="M93.88,11.26h324.23c49.16,0,88.9,39.74,88.9,88.9v311.68c0,49.16-39.74,88.9-88.9,88.9H93.88c-49.16,0-88.9-39.74-88.9-88.9V100.16C4.98,51,44.72,11.26,93.88,11.26Z"/>
  <path class="cls-2" d="M248.91,306.69h-80.21l-16.39,50.67c-.43,1.94-2.16,3.23-4.1,3.02h-40.54c-2.37,0-3.02-1.29-2.37-3.88l69.43-199.88c.65-2.16,1.29-4.53,2.16-7.12.86-4.53,1.29-9.27,1.29-14.02-.22-1.08.65-2.16,1.73-2.37h55.85c1.73,0,2.59.65,2.8,1.72l78.7,222.09c.65,2.37,0,3.45-2.16,3.45h-45.07c-1.51.22-3.02-.86-3.45-2.37l-17.68-51.32ZM181.21,262.92h54.77c-1.29-4.53-3.02-9.92-4.96-15.52-1.94-5.82-3.88-12.07-5.82-18.54-2.16-6.68-4.1-13.15-6.25-19.84-2.16-6.68-4.1-12.94-5.82-19.19-1.73-6.04-3.23-11.64-4.74-16.82h-.43c-1.94,9.27-4.31,18.54-7.33,27.82-3.23,10.35-6.47,21.13-9.92,31.91-3.02,11-6.25,21.13-9.49,30.19h0ZM365.35,170.85c-7.12.22-14.02-2.59-19.19-7.55-4.96-5.39-7.55-12.51-7.33-19.84-.22-7.33,2.59-14.23,7.76-19.19,5.18-4.96,12.07-7.55,19.19-7.55,8.41,0,14.88,2.59,19.62,7.55,4.74,5.17,7.33,12.07,7.12,19.19.22,7.33-2.37,14.45-7.55,19.84-4.96,5.17-12.29,7.98-19.62,7.55h0ZM341.2,358.01v-166.03c0-2.16.86-3.02,2.8-3.02h42.69c1.94,0,2.8,1.08,2.8,3.02v166.03c0,2.37-.86,3.45-2.8,3.45h-42.26c-2.16,0-3.23-1.29-3.23-3.45Z"/>
</svg>