<?xml version="1.0" encoding="UTF-8"?>
<svg id="Capa_1" data-name="Capa 1" xmlns="http://www.w3.org/2000/svg" viewBox="0 0 512 512">
  <defs>
    <style>
      .cls-1 {
        fill: #31a8ff;
      }

      .cls-1, .cls-2 {
        stroke-width: 0px;
      }

      .cls-2 {
        fill: #001e36;
      }
    </style>
  </defs>
  <path class="cls-2" d="M93.88,11.26h324.23c49.16,0,88.9,39.74,88.9,88.9v311.68c0,49.16-39.74,88.9-88.9,88.9H93.88c-49.16,0-88.9-39.74-88.9-88.9V100.16C4.98,51,44.72,11.26,93.88,11.26Z"/>
  <path class="cls-1" d="M180,366.82H57.87c-2.2,0-3-1.2-3-3.8v-218.63c0-2.2.8-3,2.8-3h37.84c1.4,0,2.2.8,2.2,2.4v179.59h88.9c2,0,2.6,1,2.2,3l-5.61,37.24c-.2,1.2-.6,2.2-1.2,2.6s-1.4.6-2,.6h0ZM210.43,195.64h33.84c2,0,3.2,1,4,3.4.6,1.4,1.2,3.2,1.4,5.01.4,2.2.6,4.4.8,6.61.2,2.4.2,5.01.2,7.61,5.61-7.21,12.61-13.61,20.62-18.42,8.61-5.21,18.62-8.01,28.63-7.61,2,0,2.8,1,2.8,3v41.64c0,1.8-1,2.4-3,2.4-6.81-.4-13.61,0-20.22,1.4-5.61,1.2-10.81,3.2-16.02,5.81-3.8,2-7.41,4.81-10.41,8.01v109.12c0,2.2-.8,3-2.6,3h-37.24c-2.2,0-3-1-3-3.4v-118.53c0-5.21,0-10.41-.2-16.02,0-5.61-.2-11.21-.4-16.62-.2-4.81-.6-9.41-1.2-14.22,0-.6,0-1.2.4-2,.6-.2,1-.4,1.6-.2h0ZM454.49,164c-4.4-2-9.41-3-14.42-3.6-7.21-.8-14.62-1.2-21.82-1.2-21.02,0-39.44,4.4-54.46,13.21-15.02,8.81-27.43,21.82-35.44,37.44-8.41,15.82-12.41,34.64-12.41,55.66-.2,12.61,1.4,25.23,4.81,37.64,3,10.41,7.41,20.22,13.61,29.23,5.81,8.41,12.81,15.42,21.02,21.22s17.42,10.21,27.23,12.81c10.01,2.8,20.82,4.2,31.23,4.2,7.41,0,14.82-.4,22.02-1.4,6.01-.6,11.81-2.2,17.42-4.2,2.2-1,3.4-3.2,3.2-5.81v-31.83c.2-1-.2-2.4-1-3.2-.6-.4-1.8-1-3.4.2-4.81,1.8-9.81,3-15.02,3.6-6.21.6-12.41.8-18.62.8-5.61,0-11.41-.8-16.62-2.4-5.81-1.4-11.21-3.8-16.22-6.81-5.41-3.2-9.81-7.41-13.41-12.41-4-5.61-7.21-11.81-9.41-18.42-2.4-8.21-3.6-16.42-3.4-25.03-.2-11.81,2.2-23.63,7.01-34.24,4.4-9.21,11.41-17.02,20.02-22.42,9.41-5.61,20.22-8.41,31.23-8.21,6.61,0,13.41.4,20.02,1.8,5.41.8,10.41,2.6,15.42,5.21.8.4,2,.4,2.8,0,.8-.8,1.4-2,1.2-3.2v-33.44c0-2.2-.8-4-2.6-5.21h0Z"/>
</svg>