<?xml version="1.0" encoding="UTF-8"?>
<svg id="Capa_1" data-name="Capa 1" xmlns="http://www.w3.org/2000/svg" viewBox="0 0 512 512">
  <defs>
    <style>
      .cls-1 {
        fill: #31a8ff;
      }

      .cls-1, .cls-2 {
        stroke-width: 0px;
      }

      .cls-2 {
        fill: #001e36;
      }
    </style>
  </defs>
  <path class="cls-2" d="M93.88,11.26h324.23c49.16,0,88.9,39.74,88.9,88.9v311.68c0,49.16-39.74,88.9-88.9,88.9H93.88c-49.16,0-88.9-39.74-88.9-88.9V100.16C4.98,51,44.72,11.26,93.88,11.26Z"/>
  <path class="cls-1" d="M102.74,362.77v-218.42c0-1.49.64-2.33,2.12-2.33,3.61,0,7,0,11.89-.21,5.09-.21,10.4-.21,16.13-.42,5.73-.21,11.89-.21,18.47-.42,6.58-.21,12.95-.21,19.32-.21,17.41,0,31.84,2.12,43.73,6.58,10.61,3.61,20.38,9.55,28.44,17.41,6.79,6.79,12.1,15.07,15.5,24.2,3.18,8.92,4.88,18.04,4.88,27.59,0,18.25-4.25,33.33-12.74,45.21-8.49,11.89-20.38,20.8-34.17,25.9-14.43,5.31-30.35,7.22-47.76,7.22-5.09,0-8.49,0-10.61-.21s-5.09-.21-9.13-.21v68.14c.21,1.49-.85,2.76-2.33,2.97h-41.18c-1.7,0-2.55-.85-2.55-2.76h0ZM149.01,182.98v71.32c2.97.21,5.73.42,8.28.42h11.25c8.28,0,16.56-1.27,24.41-3.82,6.79-1.91,12.74-5.94,17.41-11.25,4.46-5.31,6.58-12.52,6.58-21.86.21-6.58-1.49-13.16-4.88-18.89-3.61-5.52-8.7-9.76-14.86-12.1-7.85-3.18-16.34-4.46-25.05-4.25-5.52,0-10.4,0-14.43.21-4.25-.21-7.22,0-8.7.21h0ZM395.66,241.35c-6.37-3.4-13.16-5.73-20.38-7.22-7.85-1.7-15.71-2.76-23.77-2.76-4.25-.21-8.7.42-12.74,1.49-2.76.64-5.09,2.12-6.58,4.25-1.06,1.7-1.7,3.82-1.7,5.73s.85,3.82,2.12,5.52c1.91,2.33,4.46,4.25,7.22,5.73,4.88,2.55,9.98,4.88,15.07,7,11.46,3.82,22.5,9.13,32.69,15.5,7,4.46,12.74,10.4,16.77,17.62,3.4,6.79,5.09,14.22,4.88,21.86.21,9.98-2.76,19.95-8.28,28.23-5.94,8.49-14.22,15.07-23.77,18.89-10.4,4.46-23.14,6.79-38.42,6.79-9.76,0-19.32-.85-28.87-2.76-7.43-1.27-14.86-3.61-21.65-6.79-1.49-.85-2.55-2.33-2.33-4.03v-36.93c0-.64.21-1.49.85-1.91s1.27-.21,1.91.21c8.28,4.88,16.98,8.28,26.32,10.4,8.07,2.12,16.56,3.18,25.05,3.18s13.8-1.06,17.62-2.97c3.4-1.49,5.73-5.09,5.73-8.92,0-2.97-1.7-5.73-5.09-8.49s-10.4-5.94-20.8-9.98c-10.83-3.82-20.8-8.92-30.14-15.28-6.58-4.67-12.1-10.83-16.13-18.04-3.4-6.79-5.09-14.22-4.88-21.65,0-9.13,2.55-17.83,7.22-25.68,5.31-8.49,13.16-15.28,22.29-19.53,9.98-5.09,22.5-7.43,37.57-7.43,8.7,0,17.62.64,26.32,1.91,6.37.85,12.52,2.55,18.25,4.88.85.21,1.7,1.06,2.12,1.91.21.85.42,1.7.42,2.55v34.6c0,.85-.42,1.7-1.06,2.12-1.91.42-2.97.42-3.82,0h0Z"/>
</svg>