<?xml version="1.0" encoding="UTF-8"?>
<svg id="Capa_1" data-name="Capa 1" xmlns="http://www.w3.org/2000/svg" viewBox="0 0 512 512">
  <defs>
    <style>
      .cls-1 {
        fill: #f2f2f2;
        stroke-width: 0px;
      }
    </style>
  </defs>
  <path class="cls-1" d="M312.78,57.6v206.16l117.7-117.89c-26.76-42.3-68.46-74.2-117.7-88.27Z"/>
  <path class="cls-1" d="M457.23,301.69c3.32-14.7,5.09-29.99,5.09-45.69,0-36.4-9.44-70.59-25.99-100.29l-145.73,145.97h166.63Z"/>
  <path class="cls-1" d="M364.24,431.66c43.24-26.7,75.88-68.91,90.16-118.88h-206.93l116.77,118.88Z"/>
  <path class="cls-1" d="M54.77,210.31c-3.32,14.7-5.09,29.99-5.09,45.69,0,36.62,9.55,71,26.29,100.82l145.48-146.51H54.77Z"/>
  <path class="cls-1" d="M146.44,81.17c-42.58,26.74-74.71,68.6-88.83,118.05h206.39l-117.56-118.05Z"/>
  <path class="cls-1" d="M210.31,457.23c14.7,3.32,29.99,5.09,45.69,5.09,35.61,0,69.11-9.02,98.34-24.9l-144.03-146.63v166.45Z"/>
  <path class="cls-1" d="M199.22,454.4v-205.95l-117.38,118.2c26.77,42.04,68.34,73.74,117.38,87.75Z"/>
  <path class="cls-1" d="M301.69,54.77c-14.7-3.32-29.99-5.09-45.69-5.09-36.16,0-70.15,9.32-99.7,25.66l145.39,146V54.77Z"/>
  <path class="cls-1" d="M480.82,161.02c-12.29-29.06-29.88-55.15-52.28-77.55-22.4-22.4-48.49-39.99-77.55-52.28-30.1-12.73-62.05-19.18-94.98-19.18s-64.89,6.45-94.98,19.18c-29.06,12.29-55.15,29.88-77.55,52.28-22.4,22.4-39.99,48.49-52.28,77.55-12.73,30.1-19.18,62.05-19.18,94.98s6.45,64.89,19.18,94.98c12.29,29.06,29.88,55.15,52.28,77.55,22.4,22.4,48.49,39.99,77.55,52.28,30.1,12.73,62.05,19.18,94.98,19.18s64.89-6.45,94.98-19.18c29.06-12.29,55.15-29.88,77.55-52.28,22.4-22.4,39.99-48.49,52.28-77.55,12.73-30.1,19.18-62.05,19.18-94.98s-6.45-64.89-19.18-94.98ZM256,477.82c-122.51,0-221.82-99.31-221.82-221.82S133.49,34.18,256,34.18s221.82,99.31,221.82,221.82-99.31,221.82-221.82,221.82Z"/>
</svg>