<?xml version="1.0" encoding="UTF-8"?>
<svg id="Capa_1" data-name="Capa 1" xmlns="http://www.w3.org/2000/svg" viewBox="0 0 512 512">
  <defs>
    <style>
      .cls-1 {
        fill: #00005b;
      }

      .cls-1, .cls-2 {
        stroke-width: 0px;
      }

      .cls-2 {
        fill: #99f;
      }
    </style>
  </defs>
  <path class="cls-1" d="M93.88,11.26h324.23c49.16,0,88.9,39.74,88.9,88.9v311.68c0,49.16-39.74,88.9-88.9,88.9H93.88c-49.16,0-88.9-39.74-88.9-88.9V100.16C4.98,51,44.72,11.26,93.88,11.26Z"/>
  <path class="cls-2" d="M124.21,354.32v-215.46c0-1.46.63-2.3,2.09-2.3,3.56,0,6.9,0,11.71-.21,5.02-.21,10.25-.21,15.9-.42s11.71-.21,18.2-.42c6.48-.21,12.76-.21,19.04-.21,17.15,0,31.38,2.09,43.09,6.48,10.46,3.56,20.08,9.41,28.03,17.15,6.69,6.69,11.92,14.85,15.27,23.85,3.14,8.79,4.81,17.78,4.81,27.19,0,17.99-4.18,32.84-12.55,44.56-8.37,11.71-20.08,20.5-33.68,25.52-14.22,5.23-29.91,7.11-47.07,7.11-5.02,0-8.37,0-10.46-.21s-5.02-.21-8.99-.21v67.15c.21,1.46-.84,2.72-2.3,2.93h-40.58c-1.67,0-2.51-.84-2.51-2.72v.21ZM169.82,177.14v70.29c2.93.21,5.65.42,8.16.42h11.09c8.16,0,16.32-1.26,24.06-3.77,6.69-1.88,12.55-5.86,17.15-11.09,4.39-5.23,6.48-12.34,6.48-21.55.21-6.48-1.46-12.97-4.81-18.62-3.56-5.44-8.58-9.62-14.64-11.92-7.74-3.14-16.11-4.39-24.68-4.18-5.44,0-10.25,0-14.22.21-4.18-.21-7.11,0-8.58.21h0ZM312.48,189.48h36.61c2.09,0,3.77,1.46,4.39,3.35.63,1.67,1.05,3.35,1.26,5.23.42,2.09.84,4.39,1.05,6.48.21,2.3.42,4.81.42,7.53,6.28-7.32,13.81-13.39,22.38-17.99,9.62-5.44,20.71-8.16,31.8-8.16,1.46-.21,2.72.84,2.93,2.3v41.63c0,1.67-1.05,2.3-3.35,2.3-7.53-.21-15.27.42-22.59,2.09-6.07,1.26-11.92,3.14-17.57,5.65-3.97,1.88-7.74,4.39-10.67,7.74v106.68c0,2.09-.84,2.93-2.72,2.93h-41.21c-1.67.21-3.14-.84-3.35-2.51v-116.72c0-5.02,0-10.25-.21-15.69-.21-5.44-.21-10.88-.42-16.32,0-4.81-.42-9.41-.84-14.22-.21-1.05.42-2.09,1.46-2.3,0-.21.42-.21.63,0h0Z"/>
</svg>