<?xml version="1.0" encoding="UTF-8"?>
<svg id="Capa_1" data-name="Capa 1" xmlns="http://www.w3.org/2000/svg" viewBox="0 0 512 512">
  <defs>
    <style>
      .cls-1 {
        fill: #f9f9f9;
        stroke-width: 0px;
      }
    </style>
  </defs>
  <path class="cls-1" d="M256,26.28c126.78,0,229.72,103.17,229.72,229.72s-103.17,229.72-229.72,229.72S26.28,382.78,26.28,256,129.45,26.28,256,26.28M256,14.82C122.8,14.82,14.82,122.8,14.82,256s107.98,241.18,241.18,241.18,241.18-107.98,241.18-241.18S389.43,14.82,256,14.82Z"/>
  <path class="cls-1" d="M239.26,111.57s-54.33,15.36-103.17,67.17c-48.83,51.81-55.02,88.72-55.02,116.23,10.78-18.34,77.26-119.44,92.85-71.3v115.09s-.92,15.59-24.76,9.4c7.11,13.3,43.79,46.08,110.04,52.73,15.13-15.13,34.85-36.91,34.85-36.91l33.01,27.97s59.38-38.52,82.76-94.45c-21.78,14.21-48.14,47.23-61.9,24.07v-140.08s35.31-52.96,40.81-55.48c-13.98,2.52-63.27,18.8-89.18,52.27-7.34-8.02-27.74-8.25-27.74-8.25,0,0,16.05,13.3,16.28,25.45.23,12.15,0,113.48,0,125.17-11,11.23-22.7,17.19-30.26,17.19-17.65,0-22.7-6.19-27.51-12.38v-147.18s-8.71,7.34-15.59-4.59c-6.88-11.92-7.11-35.08,24.53-62.13Z"/>
</svg>