<?xml version="1.0" encoding="UTF-8"?>
<svg id="Capa_1" data-name="Capa 1" xmlns="http://www.w3.org/2000/svg" viewBox="0 0 512 512">
  <defs>
    <style>
      .cls-1 {
        fill: #fce8b3;
      }

      .cls-1, .cls-2, .cls-3, .cls-4, .cls-5 {
        stroke-width: 0px;
      }

      .cls-2 {
        fill: #efa204;
      }

      .cls-3 {
        fill: #fc0001;
      }

      .cls-4 {
        fill: #fb6d01;
      }

      .cls-5 {
        fill: #facf67;
      }
    </style>
  </defs>
  <path class="cls-3" d="M307.86,457.94c81.62,6.33,104.14-33.07,85.84-87.25-18.29-54.18,0-68.96,0-68.96,0,0-23.92,11.26-26.74,26.03-2.81,14.78-25.24,23.88-32.32,13.35-7.08-10.53-7.78,3.54-7.78,3.54l-19,113.29Z"/>
  <path class="cls-3" d="M127.73,439.65c-32.37-33.77-6.33-53.48,11.26-67.55,17.59-14.07-7.74-39.4-7.74-39.4,0,0,33.07,5.63,30.96,24.63-2.11,19-10.55,46.44-4.93,59.11,5.63,12.67-29.55,23.22-29.55,23.22Z"/>
  <path class="cls-3" d="M264.24,286.65c-36.58-34.39,8.66-41.14,15.81-81.87,7.06-40.15-16.49-73.85-33.15-88.67-.05-.05-.1-.11-.15-.16-23.19-22.67,12.75-38.92-7.08-82.75,0,0,2.09,24.01-10.44,36.53-12.53,12.53-31.04,29.63-8.08,74.52,3.23,6.3,5.33,12.38,6.57,18.15.69,12.68-4.84,23.9-27.09,35.56-68.85,36.06-9.54,76.02-9.54,96.84s-27.04,27.15-24.65,43.44c2.39,16.29,17.17,9.27,2.39,22.63-32.92,29.74-66.98,83.28,14.93,110.43,0,0,119.46,18.99,137.75-33.5,18.29-52.49-20.67-116.75-57.25-151.14Z"/>
  <path class="cls-3" d="M254.27,454.89c139.87,36.53,103.33-86.63,80.37-113.77-22.96-27.14,27.36-52.78,27.14-87.68-.4-61.74-38.24-83.32-58.07-101.54-40.09-36.82-2.78-66.8-2.78-66.8,0,0-46.27,14.26-34.79,48.7,14.43,43.31-56.75,156.16-34.83,226.09,21.92,69.93,22.96,94.98,22.96,94.98Z"/>
  <path class="cls-4" d="M300.08,446.9c-93.82,23.46-154.81-43.16-119.16-76,35.65-32.84-8.44-19.7,21.58-77.87,30.02-58.17-57.23-44.1,1.88-88.19,59.11-44.1,31.9-63.8,23.46-91.95-8.44-28.15,4.69-38.47,4.69-38.47,0,0-13.14,30.02,11.26,47.85,24.39,17.83,63.8,69.43,67.55,118.22,3.75,48.79,5.63,97.58,20.64,144.49,15.01,46.91-31.9,61.92-31.9,61.92Z"/>
  <path class="cls-4" d="M278.5,119.45c-9.38,37.53,9.38,112.59,9.38,112.59l-5.63,122.91s45.04-29.09,58.17-76.94c13.14-47.85-2.81-77.87-34.71-106.96-31.9-29.09-27.21-51.6-27.21-51.6Z"/>
  <path class="cls-3" d="M188.43,106.32c-24.39,42.22,21.5,34.03,12.2,63.8-4.69,15.01-15.95,20.64-15.95,20.64,0,0,20.64-21.58-7.51-38.47-28.15-16.89,11.26-45.97,11.26-45.97Z"/>
  <path class="cls-3" d="M361.07,305.22c20.64-15.01,19.7-46.91,19.7-46.91,0,0,5.77,31.04,1.88,37.53-8.44,14.07-21.58,9.38-21.58,9.38Z"/>
  <path class="cls-3" d="M165.4,309.37c-36.83-17.82-22.57-66.53-22.57-66.53,0,0-1.19,28.51,13.07,40.4,14.26,11.88,26.14,14.26,23.76,21.39-2.38,7.13-14.26,4.75-14.26,4.75Z"/>
  <path class="cls-4" d="M288.16,463.57c94.99,11.26,100.62-32.37,99.92-58.4-.7-26.03-14.78-40.11-13.37-54.88,1.41-14.78,4.22-17.59,4.22-17.59,0,0-15.48,11.26-12.67,26.74,2.81,15.48-17.66,21.76-29.59,10.53-11.93-11.23-48.52,93.61-48.52,93.61Z"/>
  <path class="cls-5" d="M256.49,455.13c145.65,26.03,124.54-33.78,118.92-69.66-5.63-35.89,6.33,19.7-41.52,14.07-47.85-5.63-77.4,55.59-77.4,55.59Z"/>
  <path class="cls-2" d="M260.68,156.98c61.92,69.43,88.19,100.39,49.73,148.24-38.47,47.85-54.42,54.42-31.9,81.63,22.52,27.21,14.07,77.87-53.48,74.12-67.55-3.75-98.51-46.91-40.34-81.63,58.17-34.71,19.7-52.54,34.71-89.13,15.01-36.59,62.86-42.22,53.48-85.38-9.38-43.16-12.2-47.85-12.2-47.85Z"/>
  <path class="cls-2" d="M227.84,195.45c-40.34,34.71,0,91.01,22.52,82.56,22.52-8.44,29.09-29.09,0-45.04-29.09-15.95-22.52-37.53-22.52-37.53Z"/>
  <path class="cls-2" d="M233.47,452.53c121.03-6.57,130.41-54.42,103.21-82.56-27.21-28.15-26.27-45.97-26.27-45.97,0,0-38.47,21.58-24.39,47.85,14.07,26.27-40.34,12.2-55.36,40.34-15.01,28.15,2.81,40.34,2.81,40.34Z"/>
  <path class="cls-5" d="M243.09,180.2c-27.21,34.71-18.76,72.24-5.63,82.56,13.14,10.32,30.96-8.44,15.95-29.09-15.01-20.64-10.32-53.48-10.32-53.48Z"/>
  <path class="cls-5" d="M172.48,202.02c-7.51,49.73,14.07,52.54,27.21,75.06,13.14,22.52-2.81,55.36-2.81,55.36,0,0,35.65-30.02,20.64-52.54-15.01-22.52-51.6-30.96-45.04-77.87Z"/>
  <path class="cls-5" d="M271.94,405.62c-67.55,16.89-79.75-89.13-25.33-122.91,54.42-33.78,60.99-47.85,49.73-84.44-11.26-36.59-13.14-45.97-13.14-45.97,0,0,43.16,24.39,48.79,77.87,5.63,53.48-39.64,89-61.92,107.9-43.16,36.59,1.88,67.55,1.88,67.55Z"/>
  <path class="cls-1" d="M319.12,460.76c67.55,0,54.88-60.51,54.88-60.51,0,0-12.67,15.48-37.29,9.85-24.63-5.63-17.59,50.66-17.59,50.66Z"/>
  <path class="cls-5" d="M255.99,444.08c108.84-4.69,100.39-42.22,74.12-67.55-26.27-25.33-27.21-35.65-27.21-35.65,0,0-22.52,21.58-4.69,40.34,17.83,18.76-55.36,22.52-55.36,22.52l13.14,40.34Z"/>
  <path class="cls-1" d="M294.45,459.1c-167.01,3.75-104.14-137.92-65.68-158.56,38.47-20.64,74.12-30.02,80.69-51.6l6.57-21.58s13.14,45.97-30.96,75.06c-44.1,29.09-68.49,65.68-38.47,96.64,30.02,30.96,64.74,13.14,64.74-5.63s-3.75-22.52-3.75-22.52c0,0,36.59,18.76,23.46,45.04-13.14,26.27-36.59,43.16-36.59,43.16Z"/>
  <path class="cls-1" d="M254.11,174.81c18.76-49.73-6.57-81.63-6.57-81.63,0,0,7.51,28.15,3.75,45.97-3.75,17.83,2.81,35.65,2.81,35.65Z"/>
  <path class="cls-1" d="M336.67,269.57c27.21-30.96,0-86.32,0-86.32v86.32Z"/>
  <path class="cls-3" d="M275.49,265.15c31.66-19.7,26.03-35.18,7.74-51.37-18.29-16.18-17.59-32.37-17.59-32.37,0,0-8.22,17.81,3.52,29.55,9.15,9.15,13.37,19,13.37,30.96,0,10.76-7.04,23.22-7.04,23.22Z"/>
  <path class="cls-3" d="M277.6,404.47s-46.44.7-33.07-51.37c7.99-31.11,40.81-29.55,36.59-65.44-2.34-19.89,10.55,9.15,5.63,26.03-4.93,16.89-20.41,23.92-9.85,47.14,10.55,23.22,17.77,21.84,19.7,37.29.7,5.63-19,6.33-19,6.33Z"/>
  <path class="cls-1" d="M279.71,391.8c-33.77-6.33-27.18-41.27-18.29-50.66,7.19-7.6,11.96-11.96,11.96-11.96,0,0-13.37,22.52-1.41,38,11.96,15.48,7.74,24.63,7.74,24.63Z"/>
</svg>