<?xml version="1.0" encoding="UTF-8"?>
<svg id="Capa_1" data-name="Capa 1" xmlns="http://www.w3.org/2000/svg" viewBox="0 0 512 512">
  <defs>
    <style>
      .cls-1 {
        fill: none;
      }

      .cls-1, .cls-2, .cls-3 {
        stroke-width: 0px;
      }

      .cls-2 {
        fill: #244360;
      }

      .cls-3 {
        fill: #fff;
      }
    </style>
  </defs>
  <g id="Layer_3" data-name="Layer 3">
    <g id="Layer_2" data-name="Layer 2">
      <polyline class="cls-3" points="253.25 165.44 157.67 102.46 157.67 411.24 259.23 338.03 238.34 309.7 238.34 256.85 259.77 205.38 253.25 165.44"/>
      <path class="cls-2" d="M242.66,490.99l41.59-79.74-7.45-49.38-17.58-23.83-101.56,73.22V102.46l95.58,62.98-2-12.22-34.06-39.39,21.14-26.61,53.76-58.35c-17.26-4.06-35.26-6.21-53.76-6.21C109,22.66,4.15,127.51,4.15,256.85s104.85,234.19,234.19,234.19c1.45,0,2.88-.03,4.32-.05Z"/>
    </g>
    <g>
      <path class="cls-1" d="M609.33-61.8c-18.12-18.07-189.55-46.55-203.39-42.27S337.96-9.56,337.96-9.56l-35.74,38.91c103.46,24.14,180.61,116.87,180.78,227.7.2,127.89-102.17,231.98-229.51,234.49l-14.78,28.44,250.2,26.23,100.08,11.56s59.06-358.83,59.03-381.18c-.03-22.35-20.56-220.32-38.69-238.39Z"/>
      <path class="cls-2" d="M483,257.06c-.17-110.84-77.31-203.57-180.78-227.7l-53.67,58.43-21.1,26.64,34.12,39.33,2.01,12.22,128.33,84.28-122.09,88.3,17.61,23.81,7.53,49.37-41.47,79.81c127.34-2.5,229.7-106.59,229.51-234.49Z"/>
      <polygon class="cls-3" points="263.58 165.98 270.16 205.91 248.81 257.42 248.89 310.26 269.82 338.56 391.91 250.26 263.58 165.98"/>
    </g>
  </g>
</svg>