<?xml version="1.0" encoding="UTF-8"?>
<svg id="Capa_1" data-name="Capa 1" xmlns="http://www.w3.org/2000/svg" viewBox="0 0 512 512">
  <defs>
    <style>
      .cls-1 {
        fill: #eaeaea;
      }

      .cls-1, .cls-2, .cls-3, .cls-4, .cls-5, .cls-6, .cls-7, .cls-8, .cls-9, .cls-10, .cls-11, .cls-12, .cls-13, .cls-14, .cls-15, .cls-16, .cls-17, .cls-18, .cls-19, .cls-20, .cls-21, .cls-22, .cls-23, .cls-24, .cls-25, .cls-26, .cls-27, .cls-28, .cls-29, .cls-30, .cls-31, .cls-32, .cls-33, .cls-34, .cls-35, .cls-36 {
        stroke-width: 0px;
      }

      .cls-2, .cls-6, .cls-9, .cls-12, .cls-30, .cls-33, .cls-36 {
        fill: #000;
      }

      .cls-3 {
        fill: #2b454e;
      }

      .cls-4 {
        fill: #f9f9f9;
      }

      .cls-5 {
        fill: #f2f2f2;
      }

      .cls-6 {
        opacity: .05;
      }

      .cls-7 {
        fill: #565656;
      }

      .cls-8 {
        fill: #c4c4c4;
      }

      .cls-9 {
        opacity: .07;
      }

      .cls-10 {
        fill: #bababa;
      }

      .cls-11 {
        fill: #515151;
      }

      .cls-12 {
        opacity: .15;
      }

      .cls-13 {
        fill: #f4f4f4;
      }

      .cls-14 {
        fill: #a5a5a5;
      }

      .cls-15 {
        fill: #e7e7e7;
      }

      .cls-16 {
        fill: #e5e5e5;
      }

      .cls-17 {
        fill: #cecece;
      }

      .cls-18 {
        fill: #d6d6d6;
      }

      .cls-19 {
        fill: #bcbcbc;
      }

      .cls-20 {
        fill: #919191;
      }

      .cls-21 {
        fill: #4f4f4f;
      }

      .cls-22 {
        fill: #efefef;
      }

      .cls-23 {
        opacity: .2;
      }

      .cls-23, .cls-28, .cls-31 {
        fill: #fff;
      }

      .cls-24 {
        fill: #ededed;
      }

      .cls-25 {
        fill: #375a64;
      }

      .cls-26 {
        fill: #c1c1c1;
      }

      .cls-27 {
        fill: #bfbfbf;
      }

      .cls-29 {
        fill: #9e9e9e;
      }

      .cls-30 {
        opacity: .25;
      }

      .cls-31 {
        opacity: .5;
      }

      .cls-32 {
        fill: #a0a0a0;
      }

      .cls-33 {
        opacity: .1;
      }

      .cls-34 {
        fill: #7f7f7f;
      }

      .cls-35 {
        fill: #1a2e35;
      }

      .cls-36 {
        opacity: .3;
      }
    </style>
  </defs>
  <g id="Layer_5" data-name="Layer 5">
    <g id="Video_Camera" data-name="Video Camera">
      <g>
        <g>
          <g>
            <path class="cls-25" d="M41.83,201.31c-4-2.33-9.52-2.02-15.64,1.49-12.24,7.03-22.18,24.18-22.21,38.3-.01,6.91,2.36,11.8,6.23,14.17,1.3.8,16.92,8.79,18.15,9.51,4,2.34,9.53,2.04,15.65-1.48,12.24-7.03,22.18-24.18,22.21-38.3.01-6.97-2.4-11.88-6.32-14.23-1.28-.77-16.84-8.74-18.08-9.46Z"/>
            <path class="cls-25" d="M6.55,251.57c.12.2.25.4.38.58-.15-.2-.28-.4-.42-.61h.02s.01.02.01.02Z"/>
            <path class="cls-35" d="M21.9,250.47c-.03,14.12,9.87,19.86,22.11,12.82,12.24-7.03,22.18-24.18,22.21-38.3.03-14.12-9.87-19.86-22.11-12.82-12.24,7.03-22.18,24.18-22.21,38.3Z"/>
          </g>
          <path class="cls-12" d="M27.83,264.48c-.07-.04-.15-.09-.22-.12-.06-.04-.11-.06-.17-.1-.11-.06-.23-.12-.37-.2-.09-.06-.19-.11-.3-.17-.21-.11-.43-.23-.67-.36-.46-.26-.96-.54-1.49-.83-1.75-.96-10.69-5.35-12.21-6.19-.47-.27-.89-.51-1.24-.69-.43-.25-.77-.44-.95-.56-.49-.3-.96-.64-1.4-1.03-.21-.17-.41-.37-.61-.57-.33-.32-.64-.68-.91-1.05-.14-.16-.25-.31-.36-.47-.14-.19-.26-.38-.38-.58,0,0-.01,0-.01-.01h-.02c-1.62-2.63-2.54-6.15-2.53-10.46.01-4.69,1.11-9.72,3.04-14.6.25-.63.51-1.25.78-1.85.2-.46.4-.91.62-1.36.21-.46.43-.9.65-1.35,0-.01,0-.02.01-.04l17.82,9.6c-3.11,6.18-4.99,12.86-5,18.97-.01,4.25.88,7.73,2.46,10.35.94,1.53,2.1,2.75,3.47,3.66Z"/>
        </g>
        <path class="cls-3" d="M140.6,275.52c-.02,9.59-6.77,21.23-15.08,26-2.41,1.39-4.69,2.05-6.71,2.05-1.45,0-2.76-.35-3.89-1h-.03s-77.57-43.9-77.57-43.9l-.22-.12c-.42-.26-.8-.56-1.16-.89-1.96-1.8-3.12-4.81-3.11-8.8.02-9.58,6.77-21.23,15.08-26,3.46-1.98,6.64-2.47,9.17-1.66.43.13.83.3,1.22.51l.07.03.42.25,77.4,43.79h0c2.73,1.57,4.41,4.95,4.4,9.75Z"/>
        <path class="cls-12" d="M108.66,280.75c-1.38,3.5-2.17,7.12-2.18,10.49,0,3.1.66,5.62,1.82,7.51l-10.03-5.8-.22-.12s0,0-.02,0l-54.97-30.86-.25-.14-.07-.04s-.04,0-.05-.03h-.02s-5.32-3.1-5.32-3.1c-.02,0-.02-.02-.03-.02l-.06-.04c-2.67-1.6-4.32-4.95-4.31-9.7,0-3.18.75-6.58,2.05-9.88l73.66,41.75Z"/>
      </g>
      <g>
        <path class="cls-3" d="M378.89,185.37h0c0-1.06-.7-2.13-2.11-2.94l-180.84-104.41c-2.81-1.62-7.37-1.62-10.18,0l-113.98,65.81c-1.41.81-2.11,1.88-2.11,2.94h0v44.11c0,1.06.7,2.13,2.11,2.94l180.84,104.41c2.81,1.62,7.37,1.62,10.18,0l113.98-65.81c1.41-.81,2.11-1.88,2.11-2.94h0v-20.33s.8-.46.8-.46c-.51-.83-.76-1.83-.8-2.96v-20.35ZM362.77,196.4h0s0,0,0,0h0ZM85.79,157.8h0s0,0,0,0h0Z"/>
        <path class="cls-25" d="M71.78,149.71l180.84,104.41c2.81,1.62,7.37,1.62,10.18,0l113.98-65.81c2.81-1.62,2.81-4.26,0-5.88l-180.84-104.41c-2.81-1.62-7.37-1.62-10.18,0l-113.98,65.81c-2.81,1.62-2.81,4.25,0,5.88Z"/>
        <path class="cls-35" d="M252.63,254.11l-180.86-104.4c-1.39-.82-2.09-1.88-2.09-2.94v44.11c0,1.06.71,2.12,2.09,2.94l180.86,104.4c1.39.82,3.24,1.22,5.08,1.22v-44.11c-1.83,0-3.69-.4-5.08-1.22Z"/>
      </g>
      <g>
        <path class="cls-25" d="M417.1,237.07v120.6c0,3.22-2.28,7.19-5.08,8.82l-111.03,64.07c-2.8,1.62-7.34,1.62-10.16.02l-3.13-1.81-6.8-3.93v-1.58l-8.18-4.7-1.34.78h-.02l-6.8-3.93-1.36-.78s-.02-.02-.05-.02l-.35-.21c-1.06-.59-2.02-1.53-2.84-2.63-.71-.92-1.29-1.98-1.67-3.13-.07-.21-.14-.45-.21-.68-.26-.8-.38-1.6-.38-2.37v-126.47l.8-.45,121.18-69.97c.49.85,1.18,1.58,2.14,2.14l30.19,17.42c2.8,1.62,5.08,5.6,5.08,8.82Z"/>
        <path class="cls-35" d="M301,430.55c-1.58.92-3.34,1.39-5.1,1.39s-3.5-.47-5.06-1.36l-3.13-1.81-6.8-3.93v-1.58l-8.18-4.7-1.34.78h-.02l-6.8-3.93-1.36-.78s-.02-.02-.05-.02c-1.27-.75-2.35-1.72-3.2-2.85-.71-.92-1.29-1.98-1.67-3.13-.07-.21-.14-.45-.21-.68-.26-.92-.38-1.88-.38-2.87l-.49-149.75.49,20.39c0,1.03.28,2.07.8,2.94.49.87,1.25,1.62,2.14,2.14l36.75,21.23c-.89,1.34-1.32,3.06-1.48,5.01v120.57l5.08,2.94Z"/>
        <path class="cls-35" d="M95.76,312.43c-2.81-1.62-5.09-5.57-5.09-8.82v-43.75s176.6,101.96,176.6,101.96v49.63l-171.51-99.02Z"/>
        <path class="cls-3" d="M412.02,234.13l-111.01,64.09c-2.81,1.62-5.09,5.57-5.09,8.82v120.58c0,3.25,2.28,4.56,5.09,2.94l111.01-64.09c2.81-1.62,5.09-5.57,5.09-8.82v-120.58c0-3.25-2.28-4.56-5.09-2.94Z"/>
      </g>
      <g>
        <path class="cls-10" d="M90.57,199.16c-2.64,1.52-4.77,5.39-4.77,8.63v65.44c0,3.25,2.28,7.19,5.09,8.82l152.18,87.86c2.81,1.62,7.23,1.6,9.87-.06,2.64-1.66,4.78-5.63,4.78-8.88v-65.19c0-3.25-2.28-7.19-5.09-8.81l-152.18-87.64c-2.81-1.62-7.23-1.7-9.87-.18Z"/>
        <path class="cls-7" d="M90.89,204.85l152.2,87.87c2.81,1.62,5.09,5.57,5.09,8.82v65.44c-.01,3.25-2.29,4.56-5.1,2.94l-152.18-87.86c-2.81-1.62-5.09-5.57-5.09-8.82v-65.44c0-3.25,2.28-4.56,5.09-2.94Z"/>
        <path class="cls-34" d="M90.89,204.85l152.2,87.87c2.81,1.62,5.09,5.57,5.09,8.82v65.44c-.01,3.25-2.29,4.56-5.1,2.94l-152.18-87.86c-2.81-1.62-5.09-5.57-5.09-8.82v-65.44c0-3.25,2.28-4.56,5.09-2.94Z"/>
        <path class="cls-9" d="M257.71,295.78v65.2c0,3.24-2.14,7.22-4.77,8.86-2.4,1.53-6.28,1.67-9.08.45,2.45.99,4.3-.38,4.3-3.32l.02-65.44c0-1.62-.56-3.43-1.5-5.01v-.02l9.64-5.55c.85,1.53,1.39,3.27,1.39,4.82Z"/>
        <path class="cls-15" d="M146.16,247.79c8.61,4.97,33.03,19.07,41.64,24.04,1.69.97,3.05,3.34,3.03,5.29l-.02,3.94c-.01,1.95-1.39,2.74-3.07,1.76l-41.58-24.01c-1.69-.97-3.05-3.34-3.05-5.29v-3.97c0-1.95,1.37-2.74,3.06-1.76Z"/>
      </g>
      <g>
        <g>
          <path class="cls-32" d="M143.09,320.63c0-1.62-1.14-3.6-2.55-4.41l-9.21-5.32c-.7-.41-1.34-.44-1.8-.18-.46.27-4.33,2.49-4.79,2.77-.45.27-.73.84-.73,1.64v5.15c0,1.62,1.14,3.6,2.55,4.41l9.21,5.32c.7.41,1.34.44,1.8.18.46-.27,4.31-2.49,4.77-2.76.46-.27.75-.84.75-1.65v-5.15Z"/>
          <path class="cls-1" d="M126.56,313.67l9.21,5.32c1.41.81,2.55,2.79,2.55,4.41v5.15c0,1.62-1.14,2.28-2.55,1.47l-9.21-5.32c-1.41-.81-2.55-2.79-2.55-4.41v-5.15c0-1.62,1.14-2.28,2.55-1.47Z"/>
          <path class="cls-12" d="M143.08,320.64v5.15c0,.8-.28,1.39-.75,1.65-.42.23-3.74,2.16-4.61,2.66.38-.31.59-.82.59-1.55v-5.15c0-.8-.28-1.69-.73-2.49l4.77-2.75c.45.8.73,1.69.73,2.49Z"/>
          <path class="cls-30" d="M142.35,318.14l-4.77,2.75c-.45-.8-1.1-1.5-1.81-1.9l-9.22-5.31c-.66-.38-1.25-.45-1.69-.26.82-.47,4.23-2.45,4.68-2.68.45-.28,1.08-.24,1.79.16l9.22,5.31c.71.42,1.34,1.13,1.81,1.93Z"/>
        </g>
        <g>
          <path class="cls-27" d="M171.74,337.2c0-1.62-1.14-3.6-2.55-4.41l-9.21-5.32c-.7-.41-1.34-.44-1.8-.18-.46.27-4.33,2.49-4.79,2.77-.45.27-.73.84-.73,1.64v5.15c0,1.62,1.14,3.6,2.55,4.41l9.21,5.32c.7.41,1.34.44,1.8.18.46-.27,4.31-2.49,4.78-2.76.46-.27.75-.84.75-1.65v-5.15Z"/>
          <path class="cls-24" d="M155.21,330.23l9.21,5.32c1.41.81,2.55,2.79,2.55,4.41v5.15c0,1.62-1.14,2.28-2.54,1.47l-9.21-5.32c-1.41-.81-2.55-2.79-2.55-4.41v-5.15c0-1.62,1.14-2.28,2.55-1.47Z"/>
          <path class="cls-12" d="M171.74,337.2v5.15c0,.8-.28,1.39-.75,1.65-.42.24-3.74,2.16-4.61,2.66.38-.31.59-.82.59-1.55v-5.15c0-.8-.28-1.69-.73-2.49l4.77-2.75c.45.8.73,1.69.73,2.49Z"/>
          <path class="cls-30" d="M171.01,334.7l-4.77,2.75c-.45-.8-1.11-1.5-1.81-1.9l-9.22-5.31c-.66-.38-1.25-.45-1.69-.26.82-.47,4.23-2.44,4.68-2.68.45-.28,1.08-.24,1.79.16l9.22,5.31c.71.42,1.34,1.13,1.81,1.93Z"/>
        </g>
        <g>
          <path class="cls-17" d="M200.39,353.76c0-1.62-1.14-3.6-2.55-4.41l-9.21-5.32c-.7-.41-1.34-.44-1.8-.18-.46.27-4.33,2.49-4.79,2.77-.45.27-.73.84-.73,1.64v5.15c0,1.62,1.14,3.6,2.55,4.41l9.21,5.32c.7.41,1.34.44,1.8.18.46-.27,4.31-2.49,4.78-2.76.46-.27.75-.84.75-1.65v-5.15Z"/>
          <path class="cls-13" d="M183.86,346.79l9.21,5.32c1.41.81,2.55,2.79,2.55,4.41v5.15c0,1.62-1.14,2.28-2.55,1.47l-9.21-5.32c-1.41-.81-2.55-2.79-2.55-4.41v-5.15c0-1.62,1.14-2.28,2.55-1.47Z"/>
          <path class="cls-12" d="M200.39,353.76v5.15c0,.8-.28,1.39-.75,1.65-.42.24-3.74,2.16-4.61,2.66.38-.31.59-.82.59-1.55v-5.15c0-.8-.28-1.69-.73-2.49l4.77-2.75c.45.8.73,1.69.73,2.49Z"/>
          <path class="cls-30" d="M199.66,351.27l-4.77,2.75c-.45-.8-1.1-1.5-1.81-1.9l-9.22-5.31c-.66-.38-1.25-.45-1.69-.26.82-.47,4.23-2.45,4.68-2.68.45-.28,1.08-.24,1.79.16l9.22,5.31c.71.42,1.34,1.13,1.81,1.93Z"/>
        </g>
      </g>
      <g>
        <path class="cls-25" d="M287.71,346.42v82.34l-6.8-3.93v-1.58l-8.18-4.7-1.34.78h-.02l-6.8-3.93v-82.36c0-3.25,2.28-4.56,5.08-2.94l12.98,7.5c2.8,1.62,5.08,5.57,5.08,8.82Z"/>
        <path class="cls-35" d="M280.92,394.2v29.06l-8.18-4.7-1.34.78h-.02v-30.66c-.02-1.06.59-1.6,1.43-1.41.19.02.38.12.59.24l5.5,3.17c1.13.66,2.02,2.23,2.02,3.53Z"/>
        <path class="cls-3" d="M280.92,394.2v29.06l-8.18-4.7v-30.66c0-.24.02-.45.07-.63.19.02.38.12.59.24l5.5,3.17c1.13.66,2.02,2.23,2.02,3.53Z"/>
        <g>
          <path class="cls-32" d="M275.52,393.26l-1.05.61.05.09c-.12.19-.19.45-.19.76,0,1.03.73,2.29,1.62,2.81.27.16.53.23.75.22l.05.09,1.05-.61h0c.29-.17.48-.53.48-1.05,0-1.03-.73-2.29-1.62-2.81-.45-.26-.85-.28-1.15-.11Z"/>
          <path class="cls-12" d="M275.52,393.26l-1.05.61.05.09c-.12.19-.19.45-.19.76,0,1.03.73,2.29,1.62,2.81.27.16.53.23.75.22l.05.09,1.05-.61h0c.29-.17.48-.53.48-1.05,0-1.03-.73-2.29-1.62-2.81-.45-.26-.85-.28-1.15-.11Z"/>
          <path class="cls-4" d="M277.24,396.79c0,1.03-.73,1.45-1.62.94-.9-.52-1.62-1.78-1.62-2.81s.73-1.45,1.62-.94c.9.52,1.62,1.78,1.62,2.81Z"/>
        </g>
        <g>
          <path class="cls-26" d="M274.78,345.52l-2.31,1.34.11.2c-.26.42-.41.98-.41,1.68,0,2.27,1.59,5.03,3.56,6.17.6.35,1.16.5,1.66.48l.11.2,2.31-1.34h0c.64-.37,1.04-1.17,1.04-2.31,0-2.27-1.59-5.03-3.56-6.17-.98-.57-1.87-.62-2.52-.25Z"/>
          <path class="cls-12" d="M274.78,345.52l-2.31,1.34.11.2c-.26.42-.41.98-.41,1.68,0,2.27,1.59,5.03,3.56,6.17.6.35,1.16.5,1.66.48l.11.2,2.31-1.34h0c.64-.37,1.04-1.17,1.04-2.31,0-2.27-1.59-5.03-3.56-6.17-.98-.57-1.87-.62-2.52-.25Z"/>
          <path class="cls-4" d="M278.55,353.27c0,2.27-1.59,3.19-3.56,2.06-1.97-1.14-3.56-3.9-3.56-6.17s1.59-3.19,3.56-2.06c1.97,1.14,3.56,3.9,3.56,6.17Z"/>
        </g>
        <g>
          <path class="cls-14" d="M275.52,404.41l-1.05.61.05.09c-.12.19-.19.45-.19.76,0,1.03.73,2.29,1.62,2.81.27.16.53.23.75.22l.05.09,1.05-.61h0c.29-.17.48-.53.48-1.05,0-1.03-.73-2.29-1.62-2.81-.45-.26-.85-.28-1.15-.11Z"/>
          <path class="cls-12" d="M275.52,404.41l-1.05.61.05.09c-.12.19-.19.45-.19.76,0,1.03.73,2.29,1.62,2.81.27.16.53.23.75.22l.05.09,1.05-.61h0c.29-.17.48-.53.48-1.05,0-1.03-.73-2.29-1.62-2.81-.45-.26-.85-.28-1.15-.11Z"/>
          <path class="cls-13" d="M277.24,407.94c0,1.03-.73,1.45-1.62.94-.9-.52-1.62-1.78-1.62-2.81s.73-1.45,1.62-.94,1.62,1.78,1.62,2.81Z"/>
        </g>
        <g>
          <path class="cls-35" d="M275.3,361.97l-1.43.83.07.12c-.16.26-.25.61-.25,1.04,0,1.4.99,3.11,2.2,3.82.37.21.72.31,1.02.3l.07.12,1.43-.83h0c.4-.23.65-.72.65-1.43,0-1.41-.99-3.11-2.2-3.82-.61-.35-1.16-.38-1.56-.15Z"/>
          <path class="cls-3" d="M277.63,366.77c0,1.41-.99,1.97-2.2,1.27-1.22-.7-2.2-2.41-2.2-3.82s.99-1.97,2.2-1.27c1.22.7,2.2,2.41,2.2,3.82Z"/>
        </g>
        <g>
          <path class="cls-35" d="M275.3,374.03l-1.43.83.07.12c-.16.26-.25.61-.25,1.04,0,1.41.99,3.11,2.2,3.82.37.21.72.31,1.02.3l.07.12,1.43-.83h0c.4-.23.65-.72.65-1.43,0-1.41-.99-3.11-2.2-3.82-.61-.35-1.16-.38-1.56-.15Z"/>
          <path class="cls-3" d="M277.63,378.82c0,1.4-.99,1.97-2.2,1.27-1.22-.7-2.2-2.41-2.2-3.82s.99-1.97,2.2-1.27c1.22.7,2.2,2.41,2.2,3.82Z"/>
        </g>
      </g>
      <g>
        <g>
          <path class="cls-10" d="M317.38,276.18c0-.86-.64-1.93-1.44-2.38l-13.53-7.78c-.79-.46-2.08-.46-2.87,0l-18.66,10.71c-.79.46-1.41,1.54-1.38,2.42.03.88.7,1.96,1.49,2.42l13.47,7.74c.79.46,2.08.46,2.87,0l18.6-10.74c.79-.46,1.43-1.53,1.43-2.38Z"/>
          <path class="cls-23" d="M317.38,276.18c0-.86-.64-1.93-1.44-2.38l-13.53-7.78c-.79-.46-2.08-.46-2.87,0l-18.66,10.71c-.79.46-1.41,1.54-1.38,2.42.03.88.7,1.96,1.49,2.42l13.47,7.74c.79.46,2.08.46,2.87,0l18.6-10.74c.79-.46,1.43-1.53,1.43-2.38Z"/>
          <path class="cls-16" d="M315.95,275.46l-18.66,10.72c-.79.46-2.08.46-2.87,0l-13.53-7.78c-.79-.46-.79-1.2,0-1.66l18.66-10.71c.79-.46,2.08-.46,2.87,0l13.53,7.78c.79.46.79,1.2,0,1.66Z"/>
          <path class="cls-31" d="M315.95,275.46l-18.66,10.72c-.79.46-2.08.46-2.87,0l-13.53-7.78c-.79-.46-.79-1.2,0-1.66l18.66-10.71c.79-.46,2.08-.46,2.87,0l13.53,7.78c.79.46.79,1.2,0,1.66Z"/>
          <path class="cls-12" d="M294.48,289.31l-13.47-7.74c-.79-.46-1.46-1.54-1.49-2.42-.03-.8.48-1.77,1.17-2.28-.59.46-.51,1.1.2,1.52l13.52,7.78c.4.23.92.35,1.44.34h0s0,3.14,0,3.14c-.49,0-.99-.12-1.37-.34Z"/>
        </g>
        <g>
          <path class="cls-8" d="M311.19,270.01v3.47c0,.65-.46,1.44-1.02,1.76l-13.9,8.02c-.56.32-1.47.32-2.04,0l-7.51-4.34c-.56-.32-1.02-1.07-1.02-1.67s.46-1.35,1.02-1.67l7.51-4.34c.56-.32,1.36-.98,1.79-1.48l4.84-5.57c.43-.49,1.23-.62,1.79-.3l7.51,4.34c.56.32,1.02,1.11,1.02,1.76Z"/>
          <path class="cls-36" d="M311.19,270.01v3.47c0,.65-.46,1.44-1.02,1.76l-13.9,8.02c-.56.32-1.47.32-2.04,0l-7.51-4.34c-.56-.32-1.02-1.07-1.02-1.67s.46-1.35,1.02-1.67l7.51-4.34c.56-.32,1.36-.98,1.79-1.48l4.84-5.57c.43-.49,1.23-.62,1.79-.3l7.51,4.34c.56.32,1.02,1.11,1.02,1.76Z"/>
          <path class="cls-28" d="M296.28,281.11l7.51-4.34c.56-.32,1.36-.99,1.79-1.48l4.84-5.57c.43-.49.32-1.15-.25-1.48l-7.51-4.34c-.56-.32-1.36-.19-1.79.3l-4.84,5.57c-.43.49-1.23,1.15-1.79,1.48l-7.51,4.34c-.56.32-.56.85,0,1.18l7.51,4.34c.56.32,1.47.32,2.04,0Z"/>
          <path class="cls-12" d="M310.17,268.25l-7.51-4.34c-.56-.32-1.36-.19-1.79.3l-4.84,5.57c-.22.25-.54.55-.88.82l9.55,5.51c.34-.27.65-.57.87-.82l4.84-5.57c.43-.49.32-1.15-.25-1.48Z"/>
        </g>
        <path class="cls-12" d="M295.15,281.34v2.16c-.33-.02-.66-.07-.92-.24l-7.5-4.33c-.56-.33-1.03-1.08-1.03-1.67,0-.54.38-1.18.85-1.5-.38.28-.31.73.19,1.01l7.5,4.33c.26.14.59.24.92.24Z"/>
        <path class="cls-6" d="M304.71,276.12l-9.55-5.51c-.31.26-.64.49-.91.65l-7.51,4.34c-.56.32-.56.85,0,1.18l7.52,4.34c.56.32,1.47.32,2.04,0l7.51-4.34c.27-.16.6-.39.92-.65Z"/>
      </g>
      <g>
        <g>
          <path class="cls-35" d="M244.98,225.18v-2.42h.58c.59-1.1,1.64-2.14,3.15-3.02,4.97-2.87,13.04-2.87,18.01,0,1.51.87,2.56,1.91,3.15,3.02h.58v2.42h0c0,1.88-1.24,3.76-3.73,5.2-4.97,2.87-13.04,2.87-18.01,0-2.49-1.44-3.73-3.32-3.73-5.2Z"/>
          <path class="cls-3" d="M266.72,227.96c4.97-2.87,4.97-7.53,0-10.4-4.97-2.87-13.04-2.87-18.01,0-4.97,2.87-4.97,7.53,0,10.4,4.97,2.87,13.04,2.87,18.01,0Z"/>
        </g>
        <g>
          <path class="cls-11" d="M247.84,221.79v-4.2h.45c.46-.86,1.27-1.66,2.44-2.34,3.86-2.23,10.11-2.23,13.96,0,1.17.68,1.99,1.48,2.44,2.34h.45v4.2h0c0,1.46-.96,2.92-2.89,4.03-3.86,2.23-10.11,2.23-13.96,0-1.93-1.11-2.89-2.57-2.89-4.03Z"/>
          <path class="cls-12" d="M247.84,221.79v-4.2h.45c.46-.86,1.27-1.66,2.44-2.34,3.86-2.23,10.11-2.23,13.96,0,1.17.68,1.99,1.48,2.44,2.34h.45v4.2h0c0,1.46-.96,2.92-2.89,4.03-3.86,2.23-10.11,2.23-13.96,0-1.93-1.11-2.89-2.57-2.89-4.03Z"/>
          <path class="cls-5" d="M264.69,221.63c3.86-2.23,3.86-5.84,0-8.06-3.86-2.23-10.11-2.23-13.96,0-3.86,2.23-3.86,5.84,0,8.06,3.86,2.23,10.11,2.23,13.96,0Z"/>
        </g>
      </g>
      <g>
        <path class="cls-35" d="M294.81,210.77l-10.44,6.02c-1.05.6-2.75.6-3.8,0l-10.42-6.02c-1.05-.61-1.05-1.59,0-2.19l10.42-6.02c1.05-.61,2.75-.61,3.8,0l10.44,6.02c1.05.6,1.05,1.58,0,2.19Z"/>
        <path class="cls-3" d="M294.81,210.77l-10.44,6.02c-1.05.6-2.75.6-3.8,0l-10.42-6.02,10.42-6.02c1.05-.6,2.75-.6,3.8,0l10.44,6.02Z"/>
        <g>
          <path class="cls-21" d="M277.93,210.63v-1.93h.21c.21-.39.59-.77,1.13-1.08,1.78-1.03,4.65-1.03,6.43,0,.54.31.91.68,1.13,1.08h.21v1.93h0c0,.67-.44,1.34-1.33,1.86-1.78,1.02-4.65,1.02-6.43,0-.89-.51-1.33-1.18-1.33-1.86Z"/>
          <path class="cls-12" d="M277.93,210.63v-1.93h.21c.21-.39.59-.77,1.13-1.08,1.78-1.03,4.65-1.03,6.43,0,.54.31.91.68,1.13,1.08h.21v1.93h0c0,.67-.44,1.34-1.33,1.86-1.78,1.02-4.65,1.02-6.43,0-.89-.51-1.33-1.18-1.33-1.86Z"/>
          <path class="cls-5" d="M285.69,210.56c1.77-1.03,1.77-2.69,0-3.71-1.78-1.02-4.65-1.02-6.43,0-1.78,1.02-1.78,2.69,0,3.71,1.78,1.02,4.65,1.02,6.43,0Z"/>
        </g>
      </g>
      <g>
        <path class="cls-35" d="M315.35,198.91l-10.44,6.02c-1.05.6-2.75.6-3.8,0l-10.42-6.02c-1.05-.61-1.05-1.59,0-2.19l10.42-6.02c1.05-.61,2.75-.61,3.8,0l10.44,6.02c1.05.6,1.05,1.58,0,2.19Z"/>
        <path class="cls-3" d="M315.35,198.91l-10.44,6.02c-1.05.6-2.75.6-3.8,0l-10.42-6.02,10.42-6.02c1.05-.6,2.75-.6,3.8,0l10.44,6.02Z"/>
        <g>
          <path class="cls-20" d="M298.47,198.78v-1.93h.21c.21-.39.58-.77,1.13-1.08,1.78-1.02,4.65-1.02,6.43,0,.54.31.91.68,1.13,1.08h.21v1.93h0c0,.67-.44,1.34-1.33,1.86-1.78,1.02-4.65,1.02-6.43,0-.89-.51-1.33-1.18-1.33-1.86Z"/>
          <path class="cls-12" d="M298.47,198.78v-1.93h.21c.21-.39.58-.77,1.13-1.08,1.78-1.02,4.65-1.02,6.43,0,.54.31.91.68,1.13,1.08h.21v1.93h0c0,.67-.44,1.34-1.33,1.86-1.78,1.02-4.65,1.02-6.43,0-.89-.51-1.33-1.18-1.33-1.86Z"/>
          <path class="cls-5" d="M306.23,198.7c1.78-1.03,1.78-2.69,0-3.71-1.78-1.02-4.65-1.02-6.43,0-1.78,1.02-1.77,2.69,0,3.71,1.78,1.02,4.65,1.02,6.43,0Z"/>
        </g>
      </g>
      <g>
        <g>
          <path class="cls-28" d="M403.08,292.21l-.02-.02-1.21-.7c-7.12-3.76-16.81-3.03-27.48,3.1-22.03,12.67-39.92,43.51-39.97,68.92,0,4.69.59,8.88,1.72,12.5,1.52,4.83,3.96,8.66,7.13,11.37.78.66,1.6,1.25,2.46,1.77l.05.04c.05.04.09.05.14.07l.18.11.66.38,26.74,15.49c-1.1-.68-2.12-1.48-3.08-2.36-5.2-4.77-8.27-12.75-8.24-23.32.05-25.39,17.94-56.25,39.97-68.9,9.16-5.26,17.59-6.54,24.31-4.41,1.14.34,2.21.79,3.24,1.34l-26.6-15.39Z"/>
          <path class="cls-25" d="M343.25,387.39c.77.66,1.6,1.25,2.46,1.77l-14.1-8.18s-.05-.04-.07-.05l-.16-.09c-7.09-4.22-11.46-13.11-11.43-25.7.05-25.39,17.94-56.25,39.97-68.9,6.39-3.68,12.44-5.41,17.79-5.4,3.87,0,7.38.92,10.39,2.68l13.77,7.98c-7.12-3.76-16.81-3.03-27.48,3.1-22.03,12.67-39.92,43.51-39.97,68.92,0,4.69.59,8.88,1.72,12.5,1.49,4.83,3.94,8.67,7.13,11.37Z"/>
          <path class="cls-3" d="M485.31,358.91c-.05,25.41-17.94,56.25-39.97,68.9-6.39,3.68-12.44,5.43-17.79,5.42-3.83,0-7.31-.92-10.32-2.64l-.05-.04h-.02l-43.1-24.99-.59-.32c-1.1-.68-2.12-1.48-3.08-2.36-5.2-4.77-8.27-12.75-8.24-23.32.05-25.39,17.94-56.25,39.97-68.9,9.16-5.26,17.59-6.54,24.31-4.41,1.14.34,2.21.79,3.24,1.34l.18.09,1.12.66,42.67,24.72v.02c7.23,4.15,11.69,13.09,11.66,25.82Z"/>
        </g>
        <g>
          <path class="cls-3" d="M359.69,393.98c-.2,0-.41-.05-.6-.16l-15.09-8.67c-.58-.33-.77-1.07-.44-1.64.33-.58,1.07-.77,1.64-.44l15.09,8.67c.58.33.77,1.07.44,1.64-.22.39-.63.6-1.04.6Z"/>
          <path class="cls-3" d="M356.71,383.29c-.2,0-.41-.05-.6-.16l-15.09-8.67c-.58-.33-.77-1.07-.44-1.64.33-.58,1.07-.77,1.64-.44l15.09,8.67c.58.33.77,1.07.44,1.64-.22.39-.63.6-1.04.6Z"/>
          <path class="cls-3" d="M355.63,373.12c-.2,0-.41-.05-.6-.16l-15.09-8.67c-.58-.33-.77-1.07-.44-1.64.33-.58,1.07-.77,1.64-.44l15.09,8.67c.58.33.77,1.07.44,1.64-.22.39-.63.6-1.04.6Z"/>
          <path class="cls-3" d="M356.2,363.88c-.2,0-.41-.05-.6-.16l-15.09-8.67c-.58-.33-.77-1.07-.44-1.64.33-.57,1.07-.77,1.64-.44l15.09,8.67c.58.33.77,1.07.44,1.64-.22.39-.63.6-1.04.6Z"/>
          <path class="cls-3" d="M358.76,355.03c-.2,0-.41-.05-.6-.16l-15.09-8.67c-.58-.33-.77-1.07-.44-1.64.33-.57,1.07-.77,1.64-.44l15.09,8.67c.58.33.77,1.07.44,1.64-.22.39-.63.6-1.04.6Z"/>
          <path class="cls-3" d="M362.3,346.29c-.2,0-.41-.05-.6-.16l-15.09-8.68c-.58-.33-.77-1.07-.44-1.64.33-.58,1.07-.77,1.64-.44l15.09,8.67c.58.33.77,1.07.44,1.64-.22.39-.63.6-1.04.6Z"/>
          <path class="cls-3" d="M366.72,337.81c-.2,0-.41-.05-.6-.16l-15.09-8.67c-.58-.33-.77-1.07-.44-1.64.33-.58,1.07-.77,1.64-.44l15.09,8.67c.58.33.77,1.07.44,1.64-.22.38-.63.6-1.04.6Z"/>
          <path class="cls-3" d="M371.92,329.8c-.2,0-.41-.05-.6-.16l-15.09-8.67c-.58-.33-.77-1.07-.44-1.64.33-.58,1.07-.77,1.64-.44l15.09,8.67c.58.33.77,1.07.44,1.64-.22.38-.63.6-1.04.6Z"/>
          <path class="cls-3" d="M377.79,322.43c-.2,0-.41-.05-.6-.16l-15.09-8.67c-.58-.33-.77-1.07-.44-1.64.33-.58,1.07-.77,1.64-.44l15.09,8.68c.58.33.77,1.07.44,1.64-.22.39-.63.6-1.04.6Z"/>
          <path class="cls-3" d="M384.23,315.87c-.2,0-.41-.05-.6-.16l-15.09-8.67c-.58-.33-.77-1.07-.44-1.64.33-.58,1.07-.77,1.64-.44l15.09,8.67c.58.33.77,1.07.44,1.64-.22.39-.63.6-1.04.6Z"/>
          <path class="cls-3" d="M391.13,310.3c-.2,0-.41-.05-.6-.16l-15.09-8.67c-.58-.33-.77-1.07-.44-1.64.33-.58,1.07-.77,1.64-.44l15.09,8.67c.58.33.77,1.07.44,1.64-.22.38-.63.6-1.04.6Z"/>
          <path class="cls-3" d="M399.36,305.44c-.2,0-.41-.05-.6-.16l-15.09-8.67c-.58-.33-.77-1.07-.44-1.64.33-.58,1.07-.77,1.64-.44l15.09,8.67c.58.33.77,1.07.44,1.64-.22.38-.63.6-1.04.6Z"/>
          <path class="cls-3" d="M408.97,302.21c-.2,0-.41-.05-.6-.16l-15.09-8.67c-.58-.33-.77-1.07-.44-1.64.33-.57,1.07-.77,1.64-.44l15.09,8.67c.58.33.77,1.07.44,1.64-.22.39-.63.6-1.04.6Z"/>
        </g>
        <path class="cls-12" d="M401.61,373.28c-3.67,9.29-5.76,18.86-5.78,27.79-.02,8.21,1.74,14.91,4.82,19.89l-26.57-15.38-.59-.33s-.02-.02-.05-.02l-26.69-15.47-.66-.38-.19-.12s-.09-.02-.14-.07l-.05-.02-14.11-8.18s-.05-.05-.07-.05l-.16-.09c-7.08-4.23-11.45-13.12-11.43-25.7.02-8.42,2-17.45,5.43-26.19l76.23,44.32Z"/>
        <g>
          <g>
            <path class="cls-25" d="M470.45,317.68c-8.62-5.03-20.54-4.37-33.74,3.22-26.41,15.18-47.87,52.17-47.92,82.63-.03,14.92,5.1,25.46,13.43,30.58,2.81,1.72,21.58,11.9,24.23,13.46,8.62,5.05,20.55,4.4,33.78-3.2,26.41-15.18,47.87-52.17,47.92-82.63.03-15.04-5.18-25.63-13.63-30.7-2.76-1.65-21.4-11.8-24.07-13.36Z"/>
            <path class="cls-25" d="M394.33,426.13c.27.43.53.85.83,1.25-.32-.43-.61-.85-.91-1.31l.05.03s.03.03.03.03Z"/>
            <path class="cls-3" d="M412.51,416.7c-.06,30.46,21.3,42.85,47.71,27.67,26.41-15.18,47.87-52.17,47.93-82.63.06-30.46-21.3-42.85-47.71-27.67-26.41,15.18-47.87,52.17-47.93,82.63Z"/>
            <path class="cls-35" d="M438.9,439.09c-13.24-.03-14.64-15.65-14.63-22.37.05-26.22,19.3-59.4,42.02-72.46,5.61-3.23,10.96-4.93,15.46-4.92,13.24.03,14.64,15.65,14.63,22.37-.05,26.21-19.3,59.4-42.02,72.46-5.61,3.23-10.96,4.93-15.46,4.92h0Z"/>
            <path class="cls-19" d="M480.74,346c0-1.73-.09-4.04-.45-6.53-4.18.31-8.96,1.9-13.99,4.79-22.73,13.06-41.97,46.25-42.02,72.46,0,1.73.09,4.04.45,6.53,4.18-.31,8.96-1.9,13.99-4.79,22.73-13.06,41.97-46.25,42.02-72.46Z"/>
            <path class="cls-31" d="M480.74,346c0-1.73-.09-4.04-.45-6.53-4.18.31-8.96,1.9-13.99,4.79-22.73,13.06-41.97,46.25-42.02,72.46,0,1.73.09,4.04.45,6.53,4.18-.31,8.96-1.9,13.99-4.79,22.73-13.06,41.97-46.25,42.02-72.46Z"/>
            <path class="cls-31" d="M453.99,358.98c8.97-10.84,20.55-14.44,22.34-10.41,1.8,4.03-3.91,43.15-41.75,66.13,0,0,20.48-17.65,30.44-39.89,5.83-13.02.53-23.68-11.03-15.83Z"/>
          </g>
          <path class="cls-12" d="M425.3,446.93c-.16-.08-.32-.19-.48-.27-.13-.08-.24-.13-.37-.21-.24-.13-.51-.27-.8-.43-.19-.13-.4-.24-.64-.37-.45-.24-.93-.51-1.44-.77-.99-.56-2.08-1.17-3.23-1.79-3.79-2.08-8.13-4.48-11.41-6.29-1.01-.59-1.92-1.09-2.67-1.49-.93-.53-1.65-.96-2.05-1.2-1.07-.64-2.08-1.39-3.01-2.21-.45-.37-.88-.8-1.31-1.23-.72-.69-1.39-1.47-1.97-2.27-.29-.35-.53-.67-.77-1.01-.29-.4-.56-.83-.83-1.25,0,0-.03,0-.03-.03l-.05-.03c-3.49-5.65-5.49-13.25-5.46-22.55.03-10.13,2.4-20.98,6.56-31.51.53-1.36,1.09-2.69,1.68-4,.43-.99.85-1.97,1.33-2.93.45-.99.93-1.95,1.41-2.91,0-.03,0-.05.03-.08l23.51,13.65c-6.72,13.33-10.77,27.75-10.8,40.94-.03,9.17,1.89,16.69,5.3,22.34,2.03,3.31,4.53,5.94,7.49,7.89Z"/>
        </g>
      </g>
      <g>
        <g>
          <path class="cls-35" d="M199.88,120v-3.37h.8c.82-1.54,2.28-2.99,4.39-4.2,6.93-4,18.16-4,25.09,0,2.11,1.22,3.57,2.67,4.39,4.2h.8v3.38h0c0,2.62-1.73,5.24-5.19,7.24-6.93,4-18.16,4-25.09,0-3.46-2-5.2-4.62-5.2-7.24Z"/>
          <path class="cls-3" d="M230.16,123.87c6.93-4,6.93-10.48,0-14.48-6.93-4-18.16-4-25.09,0-6.93,4-6.93,10.48,0,14.48,6.93,4,18.16,4,25.09,0Z"/>
        </g>
        <path class="cls-35" d="M315.18,109.22l-81.05-46.79c-4.3-2.47-9.45-2.47-13.75,0-4.3,2.49-6.89,6.96-6.89,11.92v40.75c.02.59.42,1.18,1.22,1.6,1.6.94,4.21.94,5.81,0,.78-.42,1.18-1.01,1.2-1.6v-40.75c0-2,1.03-3.79,2.77-4.77,1.74-1.01,3.79-1.01,5.53,0l81.05,46.79c1.97,1.13,4.49.45,5.62-1.5,1.13-1.98.47-4.49-1.5-5.64Z"/>
        <g>
          <path class="cls-28" d="M425.97,167.95h0c-5.05-8.73-98.01-68.6-122.14-82.57-2.46-1.58-5.94-1.46-9.81.78-7.47,4.31-13.52,14.8-13.52,23.42,0,4.46,1.63,7.53,4.22,8.88,24.32,14.01,120.37,65.14,133.46,64.55,5.27,0,9.55-4.28,9.55-9.55,0-2.05-.66-3.95-1.77-5.5Z"/>
          <path class="cls-33" d="M427.31,176.15c-2.71,3.82-7.5,5.78-22.51-.75-13.96-6.07-95.1-53.44-123.83-70.12-.3,1.46-.47,2.91-.47,4.3,0,4.46,1.63,7.53,4.22,8.88,24.32,14.01,120.37,65.14,133.46,64.55,4.33,0,7.95-2.9,9.12-6.86Z"/>
        </g>
      </g>
      <g>
        <path class="cls-22" d="M206.17,211.85c0-.86.64-1.93,1.44-2.38l13.53-7.78c.79-.46,2.08-.46,2.87,0l9.65,5.57c.79.46,1.41,1.54,1.38,2.42-.03.88-.7,1.96-1.49,2.42l-13.47,7.74c-.79.46-2.08.46-2.87,0l-9.59-5.6c-.79-.46-1.43-1.53-1.43-2.38Z"/>
        <path class="cls-23" d="M206.17,211.85c0-.86.64-1.93,1.44-2.38l13.53-7.78c.79-.46,2.08-.46,2.87,0l9.65,5.57c.79.46,1.41,1.54,1.38,2.42-.03.88-.7,1.96-1.49,2.42l-13.47,7.74c-.79.46-2.08.46-2.87,0l-9.59-5.6c-.79-.46-1.43-1.53-1.43-2.38Z"/>
        <path class="cls-29" d="M207.61,211.13l9.65,5.58c.79.46,2.08.46,2.87,0l13.53-7.78c.79-.46.79-1.2,0-1.66l-9.65-5.57c-.79-.46-2.08-.46-2.87,0l-13.53,7.78c-.79.46-.79,1.2,0,1.66Z"/>
        <path class="cls-31" d="M207.61,211.13l9.65,5.58c.79.46,2.08.46,2.87,0l13.53-7.78c.79-.46.79-1.2,0-1.66l-9.65-5.57c-.79-.46-2.08-.46-2.87,0l-13.53,7.78c-.79.46-.79,1.2,0,1.66Z"/>
        <path class="cls-12" d="M220.07,219.84l13.47-7.74c.79-.46,1.46-1.54,1.49-2.41.04-.8-.48-1.77-1.17-2.28.59.46.51,1.1-.2,1.52l-13.52,7.78c-.4.23-.92.35-1.43.34h0s0,3.14,0,3.14c.49,0,.99-.12,1.37-.34Z"/>
      </g>
      <g>
        <path class="cls-28" d="M119.99,162.35c0-.86.64-1.93,1.44-2.38l13.53-7.78c.79-.46,2.08-.46,2.87,0l9.65,5.57c.79.46,1.41,1.54,1.38,2.42-.03.88-.7,1.96-1.49,2.42l-13.47,7.74c-.79.46-2.08.46-2.87,0l-9.59-5.6c-.79-.46-1.43-1.53-1.43-2.38Z"/>
        <path class="cls-23" d="M119.99,162.35c0-.86.64-1.93,1.44-2.38l13.53-7.78c.79-.46,2.08-.46,2.87,0l9.65,5.57c.79.46,1.41,1.54,1.38,2.42-.03.88-.7,1.96-1.49,2.42l-13.47,7.74c-.79.46-2.08.46-2.87,0l-9.59-5.6c-.79-.46-1.43-1.53-1.43-2.38Z"/>
        <path class="cls-18" d="M121.43,161.63l9.65,5.58c.79.46,2.08.46,2.87,0l13.53-7.78c.79-.46.79-1.2,0-1.66l-9.65-5.57c-.79-.46-2.08-.46-2.87,0l-13.53,7.78c-.79.46-.79,1.2,0,1.66Z"/>
        <path class="cls-31" d="M121.43,161.63l9.65,5.58c.79.46,2.08.46,2.87,0l13.53-7.78c.79-.46.79-1.2,0-1.66l-9.65-5.57c-.79-.46-2.08-.46-2.87,0l-13.53,7.78c-.79.46-.79,1.2,0,1.66Z"/>
        <path class="cls-12" d="M133.89,170.34l13.47-7.74c.79-.46,1.46-1.54,1.49-2.42.04-.8-.48-1.77-1.17-2.28.59.46.51,1.1-.2,1.52l-13.52,7.78c-.4.23-.92.35-1.44.34h0s0,3.14,0,3.14c.49,0,.99-.12,1.37-.34Z"/>
      </g>
      <g>
        <path class="cls-2" d="M142.11,136.46v21.89l-8.56,4.95v-29.07c0-1.5,1.04-2.1,2.34-1.36l6.22,3.59Z"/>
        <path class="cls-3" d="M227.68,172.75v35.44l-8.17,4.73-5.5-3.19v-29.07c0-1.49-1.06-3.32-2.34-4.07l-67.11-38.73-8.66-5c-1.3-.74-2.34-.15-2.34,1.36v29.07l-5.52-3.19v-35.43c0-.15.01-.31.04-.46.18-1.4,1.15-2.94,2.32-3.6l3.48-2.02c1.29-.75,3.39-.75,4.69,0l86.77,50.09c1.3.76,2.34,2.58,2.34,4.07Z"/>
        <path class="cls-35" d="M219.51,177.48v35.44l-5.5-3.19v-29.07c0-1.49-1.06-3.32-2.34-4.07l-67.11-38.73-8.66-5c-1.3-.74-2.34-.15-2.34,1.36v29.07l-5.52-3.19v-35.43c0-.15.01-.31.04-.46.2-1.15,1.17-1.56,2.32-.89l86.77,50.09c1.29.76,2.35,2.58,2.35,4.07Z"/>
      </g>
    </g>
  </g>
</svg>