<?xml version="1.0" encoding="UTF-8"?>
<svg id="Layer_2" data-name="Layer 2" xmlns="http://www.w3.org/2000/svg" viewBox="0 0 36.72 36.36">
  <defs>
    <style>
      .cls-1 {
        fill: #8750f7;
        stroke-width: 0px;
      }
    </style>
  </defs>
  <g id="Layer_1-2" data-name="Layer 1">
    <path class="cls-1" d="M7.64,9.63H0V0h7.64v9.63ZM7.64,36.36H0v-9.32h7.64v9.32ZM14.16,18.23c0,1.77-.64,3.29-1.91,4.56-1.27,1.27-2.79,1.91-4.56,1.91s-3.28-.64-4.56-1.91c-1.27-1.27-1.91-2.79-1.91-4.56s.64-3.29,1.91-4.56c1.27-1.27,2.79-1.91,4.56-1.91s3.29.64,4.56,1.91c1.27,1.27,1.91,2.79,1.91,4.56ZM36.64,36.36h-10.37l-10.45-11.96v-12.17L26.23,0h10.49l-17.16,17.27v2.09s17.08,17.01,17.08,17.01Z"/>
  </g>
</svg>